<?xml version="1.0" encoding="utf-8"?>
<!-- Generator: Adobe Illustrator 25.4.1, SVG Export Plug-In . SVG Version: 6.00 Build 0)  -->
<svg version="1.1" id="레이어_1" xmlns="http://www.w3.org/2000/svg" xmlns:xlink="http://www.w3.org/1999/xlink" x="0px"
	 y="0px" viewBox="0 0 22 30" style="enable-background:new 0 0 22 30;" xml:space="preserve">
<style type="text/css">
	.st0{fill:#FFFFFF;}
	.st1{fill:#72C75E;}
	.st2{fill:#0065E1;}
	.st3{fill:none;stroke:#0065E1;stroke-width:9.647656e-02;stroke-miterlimit:10;}
</style>
<circle class="st0" cx="11" cy="11" r="9.5"/>
<path class="st1" d="M12.2,0.3c-1-0.1-1.8-0.1-2.5,0C2,1.6,0.2,8,0.2,10.7c0,0.1,0,0.2,0,0.3c0.1,2.7,1.5,5.1,1.5,5.1l9.2,13.5
	c0,0,0.1,0.2,0.2,0l0.1-0.1c0.1-0.2,0.3-0.4,0.5-0.7l0.2-0.3c0-0.1,0.1-0.1,0.1-0.1l8.4-12.4c0,0,1.4-2.4,1.5-5.1c0-0.1,0-0.2,0-0.3
	C21.8,8,20,1.6,12.2,0.3z M11,20.1c-5,0-9.1-4.1-9.1-9.1c0-5,4.1-9.1,9.1-9.1s9.1,4.1,9.1,9.1C20.1,16,16,20.1,11,20.1z"/>
<g>
	<path class="st2" d="M16.5,15.6v-1.9l-5.2-9.3C11,4.2,11,4.3,11,4.3s0-0.1-0.3,0.1l-5.2,9.3v1.9c0,0,0,0.2,0.3,0.2H11h5.1
		C16.5,15.8,16.5,15.6,16.5,15.6z"/>
	<path class="st3" d="M17,16v-2L11.3,3.7C11,3.5,11,3.6,11,3.6s0-0.1-0.3,0.2L5,13.9v2c0,0,0,0.2,0.4,0.2H11h5.6
		C17.1,16.2,17,16,17,16z"/>
	<path class="st0" d="M9.7,9.5c0,0-0.2-0.2-0.2-0.5c0,0,0-0.6,0.6-0.6c0,0,0.5,0,0.5,0.5c0,0,0,0.2-0.3,0.5c0,0-0.1,0.2,0.1,0.2
		c0,0,0.3,0,0.6,0.3c0,0,0.5,0.4,0.6,0.9c0,0,0,0.3,0.1,0.4c0,0,0.1,0.2,0.2,0c0,0,0.2-0.5,0.4-0.6c0,0,0.1-0.1,0-0.2
		c0,0-0.1-0.5,0.2-0.6c0,0,0.3-0.2,0.5,0.3c0,0,0,0.2-0.1,0.4c0,0-0.1,0.2,0.1,0.3c0,0,0.5,0.1,0.6,1.1c0,0,0,0.4-0.2,0.4
		c0,0-0.1,0-0.2-0.2c0,0,0.2-0.3-0.1-0.4s-0.1,0.1-0.1,0.1s0,0.4,0.1,0.5c0,0,0.1,0,0.1,0.4V13l0,0.2l0.1,0.2l0.1,0.2
		c0,0,0.1,0.1,0.1,0.3c0,0,0,0.2-0.2,0.3c0,0-0.2,0.1-0.2,0c0,0,0-0.1,0-0.1l0-0.2l0-0.1l-0.1-0.2c0,0-0.1-0.1-0.1-0.3l0-0.3l0-0.2
		c0,0-0.2,0-0.3,0.6c0,0-0.1,0.2-0.1,0.6c0,0,0,0.3-0.3,0.2c0,0-0.3,0.1-0.3-0.2c0,0,0-0.1,0.2-0.1L12,13.8l0-0.4l0-0.2l0.1-0.3
		l0.1-0.2l0.1-0.2l0-0.2l0-0.2l0-0.3l0-0.1l-0.1,0l-0.1,0.1c0,0-0.1,0.2-0.3,0.2l-0.2-0.1l-0.2-0.1l-0.2,0l-0.1-0.1v-0.3
		c0,0,0.1-0.3-0.1-0.5c-0.2-0.2-0.3-0.2-0.5-0.2c0,0-0.1,0.2,0,0.3l0.1,0.3l0.1,0.2l0.1,0.3l0.1,0.2c0,0,0.1,0.1-0.1,0.4l-0.1,0.3
		c0,0-0.2,0.1-0.1,0.4c0,0,0.2,0.3,0.2,0.7l0,0.3c0,0,0.1,0,0.1,0.2c0,0-0.1,0.2-0.2,0.3c0,0-0.3,0.2-0.3,0l0-0.3l0.1-0.1
		c0,0-0.1-0.1-0.1-0.1c0,0-0.1-0.3-0.1-0.3l-0.1-0.3L10.3,13c0,0-0.1-0.3-0.1-0.6c0,0,0-0.2-0.1-0.1c0,0-0.2-0.1-0.3,0.2
		c0,0-0.1,0.1-0.1,0.3c0,0,0,0.5-0.1,0.8c0,0-0.1,0.2-0.2,0.4c0,0-0.1,0.1,0,0.2c0,0,0.1,0.2-0.1,0.2c0,0-0.4,0-0.6-0.2
		c0,0,0-0.2,0.1-0.2c0,0,0.3,0,0.4-0.4l0-0.4l0-0.5l0-0.3l0-0.3L9.2,12L9,11.9l0.1-0.2l0.2-0.2l0.1-0.2V11l-0.2,0.1
		c0,0-0.1,0.2-0.3,0.3H8.8l-0.2,0.1l-0.4,0v-0.2l0.3-0.1L8.9,11L9,10.9l0.1-0.1l0.1-0.2l0.1-0.2c0,0,0-0.4,0.2-0.6L9.7,9.5z"/>
</g>
</svg>
