<?xml version="1.0" encoding="utf-8"?>
<!-- Generator: Adobe Illustrator 25.4.1, SVG Export Plug-In . SVG Version: 6.00 Build 0)  -->
<svg version="1.1" id="레이어_1" xmlns="http://www.w3.org/2000/svg" xmlns:xlink="http://www.w3.org/1999/xlink" x="0px"
	 y="0px" viewBox="0 0 22 30" style="enable-background:new 0 0 22 30;" xml:space="preserve">
<style type="text/css">
	.st0{fill:#FFFFFF;}
	.st1{fill:#72C75E;}
	.st2{fill:#F93E2B;}
</style>
<circle class="st0" cx="10.9" cy="11" r="9.5"/>
<path class="st1" d="M12.1,0.3c-1-0.1-1.8-0.1-2.5,0C1.9,1.6,0.2,8,0.2,10.7c0,0.1,0,0.2,0,0.3c0.1,2.7,1.5,5.1,1.5,5.1l9.2,13.5
	c0,0,0.1,0.2,0.2,0l0.1-0.1c0.1-0.2,0.3-0.4,0.5-0.7l0.2-0.3c0-0.1,0.1-0.1,0.1-0.1l8.4-12.4c0,0,1.4-2.4,1.5-5.1c0-0.1,0-0.2,0-0.3
	C21.7,8,19.9,1.6,12.1,0.3z M10.9,20.1c-5,0-9.1-4.1-9.1-9.1c0-5,4.1-9.1,9.1-9.1S20,5.9,20,11C20,16,15.9,20.1,10.9,20.1z"/>
<g>
	<g>
		<path class="st2" d="M16.5,8.7H15c-0.2-0.7-0.5-1.3-1-1.8l0.8-1.1c0.1-0.2,0.1-0.4-0.1-0.5c-0.2-0.1-0.4-0.1-0.5,0.1l-0.8,1.1
			c-0.6-0.5-1.4-0.8-2.2-0.8V4.1c0-0.2-0.2-0.3-0.4-0.3s-0.3,0.2-0.3,0.3v1.4C9.8,5.6,9,5.9,8.4,6.4L7.6,5.3
			C7.5,5.2,7.3,5.1,7.1,5.2C7,5.4,6.9,5.6,7,5.7l0.8,1.1C7.4,7.4,7,8,6.9,8.7H5.3C5.1,8.7,5,8.8,5,9s0.2,0.4,0.3,0.4h1.4
			c0,0.1,0,0.2,0,0.3v3.5c0.1,0,0.2,0,0.3,0h7.7c0.1,0,0.2,0,0.4,0V9.7c0-0.1,0-0.2,0-0.3h1.4c0.2,0,0.4-0.2,0.4-0.4
			S16.7,8.7,16.5,8.7z M10.2,8C9.7,8,9.2,8.4,9.2,9c0,0.2-0.2,0.4-0.3,0.4C8.6,9.4,8.5,9.2,8.5,9c0-1,0.8-1.8,1.8-1.8
			c0.2,0,0.4,0.2,0.4,0.3C10.6,7.8,10.4,8,10.2,8z"/>
	</g>
	<g>
		<path d="M14.8,13.9H7.1c-0.8,0-1.4,0.5-1.4,1c0,0.6,0.6,1,1.4,1h7.7c0.8,0,1.4-0.5,1.4-1C16.2,14.4,15.6,13.9,14.8,13.9z"/>
	</g>
</g>
</svg>
