<?xml version="1.0" encoding="utf-8"?>
<!-- Generator: Adobe Illustrator 25.4.1, SVG Export Plug-In . SVG Version: 6.00 Build 0)  -->
<svg version="1.1" id="레이어_1" xmlns="http://www.w3.org/2000/svg" xmlns:xlink="http://www.w3.org/1999/xlink" x="0px"
	 y="0px" viewBox="0 0 22 30" style="enable-background:new 0 0 22 30;" xml:space="preserve">
<style type="text/css">
	.st0{fill:#FFFFFF;}
	.st1{fill:#EF5264;}
	.st2{fill:#D61330;}
	.st3{fill:#E8EFF4;}
	.st4{fill:#7C79D7;}
</style>
<circle class="st0" cx="10.9" cy="11" r="9.5"/>
<rect x="5.9" y="20.1" class="st1" width="10.1" height="1.8"/>
<rect x="5.9" y="8.8" class="st1" width="10.1" height="1.8"/>
<rect x="7" y="10.6" class="st2" width="7.7" height="9.5"/>
<rect x="5.9" y="11.8" class="st1" width="1.2" height="3.6"/>
<rect x="4.7" y="12.4" class="st2" width="1.2" height="2.4"/>
<rect x="14.8" y="11.8" class="st1" width="1.2" height="3.6"/>
<rect x="16" y="12.4" class="st2" width="1.2" height="2.4"/>
<path class="st2" d="M7,8.8L7,8.8c0-2,1.6-3.6,3.6-3.6h0.6c2,0,3.6,1.6,3.6,3.6H7z"/>
<circle class="st1" cx="10.9" cy="13.8" r="2.1"/>
<circle class="st0" cx="10.9" cy="13.8" r="0.9"/>
<rect x="7.9" y="17.4" class="st3" width="0.6" height="2.7"/>
<rect x="9.7" y="17.4" class="st3" width="0.6" height="2.7"/>
<rect x="11.5" y="17.4" class="st3" width="0.6" height="2.7"/>
<rect x="13.3" y="17.4" class="st3" width="0.6" height="2.7"/>
<path class="st1" d="M10.6,5.2h0.6c0.2,0,0.4,0,0.6,0.1V4.9c0-0.5-0.4-0.9-0.9-0.9C10.4,4,10,4.4,10,4.9v0.4
	C10.2,5.2,10.4,5.2,10.6,5.2z"/>
<path class="st4" d="M12.1,0.3c-1-0.1-1.8-0.1-2.5,0C1.9,1.6,0.2,8,0.2,10.7c0,0.1,0,0.2,0,0.3c0.1,2.7,1.5,5.1,1.5,5.1l9.2,13.5
	c0,0,0.1,0.2,0.2,0l0.1-0.1c0.1-0.2,0.3-0.4,0.5-0.7l0.2-0.3c0-0.1,0.1-0.1,0.1-0.1l8.4-12.4c0,0,1.4-2.4,1.5-5.1c0-0.1,0-0.2,0-0.3
	C21.7,8,19.9,1.6,12.1,0.3z M10.9,20.1c-5,0-9.1-4.1-9.1-9.1c0-5,4.1-9.1,9.1-9.1S20,5.9,20,11C20,16,15.9,20.1,10.9,20.1z"/>
</svg>
