<?xml version="1.0" encoding="utf-8"?>
<!-- Generator: Adobe Illustrator 26.0.2, SVG Export Plug-In . SVG Version: 6.00 Build 0)  -->
<svg version="1.1" id="레이어_1" xmlns="http://www.w3.org/2000/svg" xmlns:xlink="http://www.w3.org/1999/xlink" x="0px"
	 y="0px" viewBox="0 0 22 30" style="enable-background:new 0 0 22 30;" xml:space="preserve">
<style type="text/css">
	.st0{fill:#FFFFFF;}
	.st1{fill:#EF5264;}
	.st2{fill:#7C79D7;}
	.st3{fill:url(#SVGID_1_);}
	.st4{fill:url(#SVGID_00000168090459583959552300000009209148098126773153_);}
	.st5{fill:#076240;}
	.st6{fill:url(#SVGID_00000150082871284647970810000005417515505857396624_);}
	.st7{fill:url(#SVGID_00000093147081661595020520000010324170853103124898_);}
	.st8{fill:url(#SVGID_00000170960412483228754340000012370571294866233015_);}
	.st9{fill:#066C46;}
	.st10{fill:url(#SVGID_00000025440250169543188120000018436396446733741986_);}
	.st11{fill:url(#SVGID_00000006682619482520663610000000546460841165311384_);}
	.st12{fill:url(#SVGID_00000052788551104102594850000014540449682858661022_);}
</style>
<circle class="st0" cx="10.9" cy="11" r="9.5"/>
<rect x="5.9" y="20.1" class="st1" width="10.1" height="1.8"/>
<path class="st2" d="M12.1,0.3c-1-0.1-1.8-0.1-2.5,0C1.9,1.6,0.2,8,0.2,10.7c0,0.1,0,0.2,0,0.3c0.1,2.7,1.5,5.1,1.5,5.1l9.2,13.5
	c0,0,0.1,0.2,0.2,0l0.1-0.1c0.1-0.2,0.3-0.4,0.5-0.7l0.2-0.3c0-0.1,0.1-0.1,0.1-0.1L20.4,16c0,0,1.4-2.4,1.5-5.1c0-0.1,0-0.2,0-0.3
	C21.7,8,19.9,1.6,12.1,0.3z M10.9,20.1c-5,0-9.1-4.1-9.1-9.1s4.1-9.1,9.1-9.1S20,5.9,20,11C20,16,15.9,20.1,10.9,20.1z"/>
<g>
	
		<radialGradient id="SVGID_1_" cx="11.1638" cy="25.2107" r="0.5224" fx="10.9586" fy="25.204" gradientTransform="matrix(1 0 0 -1 0 28.9291)" gradientUnits="userSpaceOnUse">
		<stop  offset="0" style="stop-color:#FFFFFF"/>
		<stop  offset="4.500000e-02" style="stop-color:#F4F4F4"/>
		<stop  offset="0.3957" style="stop-color:#9F9F9F"/>
		<stop  offset="0.6825" style="stop-color:#606060"/>
		<stop  offset="0.891" style="stop-color:#3A3A3A"/>
		<stop  offset="1" style="stop-color:#2B2B2B"/>
	</radialGradient>
	<circle class="st3" cx="10.9" cy="4.1" r="0.7"/>
	
		<linearGradient id="SVGID_00000087380919284060945030000008646406402896940673_" gradientUnits="userSpaceOnUse" x1="-105.7948" y1="16.6739" x2="-104.8287" y2="16.6739" gradientTransform="matrix(0.9637 0 0 -1 112.3517 28.9291)">
		<stop  offset="0" style="stop-color:#000000"/>
		<stop  offset="8.560000e-02" style="stop-color:#0A0A0A"/>
		<stop  offset="0.2338" style="stop-color:#272727"/>
		<stop  offset="0.4267" style="stop-color:#545454"/>
		<stop  offset="0.657" style="stop-color:#949494"/>
		<stop  offset="0.9162" style="stop-color:#E4E4E4"/>
		<stop  offset="1" style="stop-color:#FFFFFF"/>
	</linearGradient>
	<path style="fill:url(#SVGID_00000087380919284060945030000008646406402896940673_);" d="M11.3,20h-0.9l0-15.3c0-0.2,0.9-0.2,0.9,0
		L11.3,20L11.3,20z"/>
	<path class="st5" d="M15.7,11.2H6c-0.2,0-0.3-0.1-0.3-0.3V6.1c0-0.2,0.2-0.3,0.3-0.3h9.7c0.2,0,0.3,0.1,0.3,0.3v4.8
		C16,11.1,15.9,11.2,15.7,11.2z"/>
	
		<linearGradient id="SVGID_00000085239811651260658160000002625359250591213735_" gradientUnits="userSpaceOnUse" x1="5.511" y1="20.425" x2="16.221" y2="20.425" gradientTransform="matrix(1 0 0 -1 0 28.9291)">
		<stop  offset="0" style="stop-color:#E5E2DF"/>
		<stop  offset="0" style="stop-color:#D6D7D7"/>
		<stop  offset="0" style="stop-color:#D1D3D4"/>
		<stop  offset="6.760000e-02" style="stop-color:#EDEEEE"/>
		<stop  offset="0.1067" style="stop-color:#FFFFFF"/>
		<stop  offset="0.1185" style="stop-color:#F2F2F2"/>
		<stop  offset="0.1574" style="stop-color:#CBCCCD"/>
		<stop  offset="0.1931" style="stop-color:#AEB0B2"/>
		<stop  offset="0.2242" style="stop-color:#9D9FA2"/>
		<stop  offset="0.2472" style="stop-color:#97999C"/>
		<stop  offset="0.5922" style="stop-color:#D1D3D4"/>
		<stop  offset="0.6818" style="stop-color:#DBDCDD"/>
		<stop  offset="0.8321" style="stop-color:#F5F5F5"/>
		<stop  offset="0.882" style="stop-color:#FFFFFF"/>
		<stop  offset="0.8972" style="stop-color:#EAEBEC"/>
		<stop  offset="0.9214" style="stop-color:#D0D2D3"/>
		<stop  offset="0.9463" style="stop-color:#BEBFC2"/>
		<stop  offset="0.972" style="stop-color:#B3B5B7"/>
		<stop  offset="1" style="stop-color:#AFB1B4"/>
	</linearGradient>
	<path style="fill:url(#SVGID_00000085239811651260658160000002625359250591213735_);" d="M15.7,5.8c0.2,0,0.3,0.1,0.3,0.3v4.8
		c0,0.2-0.2,0.3-0.3,0.3H6c-0.2,0-0.3-0.1-0.3-0.3V6.1c0-0.2,0.2-0.3,0.3-0.3L15.7,5.8 M15.7,5.6H6c-0.3,0-0.5,0.2-0.5,0.5v4.8
		c0,0.3,0.2,0.5,0.5,0.5h9.7c0.3,0,0.5-0.2,0.5-0.5V6.1C16.2,5.9,16,5.6,15.7,5.6z"/>
	
		<radialGradient id="SVGID_00000036953889079027560470000013331310756768102313_" cx="10.9492" cy="22.8822" r="0.2564" gradientTransform="matrix(1 0 0 -1 0 28.9291)" gradientUnits="userSpaceOnUse">
		<stop  offset="0" style="stop-color:#E5E2DF"/>
		<stop  offset="0" style="stop-color:#F1EFEE"/>
		<stop  offset="0" style="stop-color:#FFFFFF"/>
		<stop  offset="0.1259" style="stop-color:#F0F0F1"/>
		<stop  offset="0.3664" style="stop-color:#C9CACB"/>
		<stop  offset="0.5225" style="stop-color:#ADAEB0"/>
		<stop  offset="0.6029" style="stop-color:#A3A5A7"/>
		<stop  offset="0.7382" style="stop-color:#898D90"/>
		<stop  offset="0.9108" style="stop-color:#5F6769"/>
		<stop  offset="1" style="stop-color:#465053"/>
	</radialGradient>
	<circle style="fill:url(#SVGID_00000036953889079027560470000013331310756768102313_);" cx="10.9" cy="6.1" r="0.2"/>
	
		<radialGradient id="SVGID_00000152956081093149759630000005813698836113247627_" cx="10.9492" cy="18.0802" r="0.2564" gradientTransform="matrix(1 0 0 -1 0 28.9291)" gradientUnits="userSpaceOnUse">
		<stop  offset="0" style="stop-color:#E5E2DF"/>
		<stop  offset="0" style="stop-color:#F1EFEE"/>
		<stop  offset="0" style="stop-color:#FFFFFF"/>
		<stop  offset="0.1259" style="stop-color:#F0F0F1"/>
		<stop  offset="0.3664" style="stop-color:#C9CACB"/>
		<stop  offset="0.5225" style="stop-color:#ADAEB0"/>
		<stop  offset="0.6029" style="stop-color:#A3A5A7"/>
		<stop  offset="0.7382" style="stop-color:#898D90"/>
		<stop  offset="0.9108" style="stop-color:#5F6769"/>
		<stop  offset="1" style="stop-color:#465053"/>
	</radialGradient>
	<circle style="fill:url(#SVGID_00000152956081093149759630000005813698836113247627_);" cx="10.9" cy="10.9" r="0.2"/>
	<path class="st9" d="M5.8,12.2h9.6c0,0,0.1,0,0.1,0l1.4,1.3c0.1,0.1,0.1,0.1,0,0.2L15.4,15c0,0-0.1,0-0.1,0l-9.6,0
		c-0.1,0-0.1-0.1-0.1-0.1v-2.5C5.7,12.2,5.7,12.2,5.8,12.2L5.8,12.2z"/>
	
		<linearGradient id="SVGID_00000175317790834393267590000018037180253085337990_" gradientUnits="userSpaceOnUse" x1="5.5146" y1="15.3531" x2="17.0201" y2="15.3531" gradientTransform="matrix(1 0 0 -1 0 28.9291)">
		<stop  offset="0" style="stop-color:#E5E2DF"/>
		<stop  offset="0" style="stop-color:#D6D7D7"/>
		<stop  offset="0" style="stop-color:#D1D3D4"/>
		<stop  offset="6.760000e-02" style="stop-color:#EDEEEE"/>
		<stop  offset="0.1067" style="stop-color:#FFFFFF"/>
		<stop  offset="0.1185" style="stop-color:#F2F2F2"/>
		<stop  offset="0.1574" style="stop-color:#CBCCCD"/>
		<stop  offset="0.1931" style="stop-color:#AEB0B2"/>
		<stop  offset="0.2242" style="stop-color:#9D9FA2"/>
		<stop  offset="0.2472" style="stop-color:#97999C"/>
		<stop  offset="0.5922" style="stop-color:#D1D3D4"/>
		<stop  offset="0.6818" style="stop-color:#DBDCDD"/>
		<stop  offset="0.8321" style="stop-color:#F5F5F5"/>
		<stop  offset="0.882" style="stop-color:#FFFFFF"/>
		<stop  offset="0.8972" style="stop-color:#EAEBEC"/>
		<stop  offset="0.9214" style="stop-color:#D0D2D3"/>
		<stop  offset="0.9463" style="stop-color:#BEBFC2"/>
		<stop  offset="0.972" style="stop-color:#B3B5B7"/>
		<stop  offset="1" style="stop-color:#AFB1B4"/>
	</linearGradient>
	<path style="fill:url(#SVGID_00000175317790834393267590000018037180253085337990_);" d="M15.4,12.2C15.4,12.2,15.4,12.2,15.4,12.2
		l1.5,1.3c0.1,0.1,0.1,0.1,0,0.2L15.4,15c0,0-0.1,0-0.1,0c0,0,0,0,0,0l-9.6,0c-0.1,0-0.1-0.1-0.1-0.1v-2.5c0-0.1,0.1-0.1,0.1-0.1
		L15.4,12.2 M15.4,12H5.8c-0.2,0-0.3,0.1-0.3,0.3v2.5c0,0.2,0.1,0.3,0.3,0.3l9.6,0l0,0c0.1,0,0.1,0,0.2-0.1l1.4-1.3
		c0.1-0.1,0.1-0.1,0.1-0.2c0-0.1,0-0.2-0.1-0.2l-1.4-1.3C15.5,12,15.4,12,15.4,12L15.4,12z"/>
	
		<radialGradient id="SVGID_00000157278817738048605150000000453122494546002857_" cx="10.9492" cy="16.5612" r="0.2564" gradientTransform="matrix(1 0 0 -1 0 28.9291)" gradientUnits="userSpaceOnUse">
		<stop  offset="0" style="stop-color:#E5E2DF"/>
		<stop  offset="0" style="stop-color:#F1EFEE"/>
		<stop  offset="0" style="stop-color:#FFFFFF"/>
		<stop  offset="0.1259" style="stop-color:#F0F0F1"/>
		<stop  offset="0.3664" style="stop-color:#C9CACB"/>
		<stop  offset="0.5225" style="stop-color:#ADAEB0"/>
		<stop  offset="0.6029" style="stop-color:#A3A5A7"/>
		<stop  offset="0.7382" style="stop-color:#898D90"/>
		<stop  offset="0.9108" style="stop-color:#5F6769"/>
		<stop  offset="1" style="stop-color:#465053"/>
	</radialGradient>
	<circle style="fill:url(#SVGID_00000157278817738048605150000000453122494546002857_);" cx="10.9" cy="12.4" r="0.2"/>
	
		<radialGradient id="SVGID_00000078022602625648991430000017916824789043712132_" cx="10.9492" cy="14.2834" r="0.2564" gradientTransform="matrix(1 0 0 -1 0 28.9291)" gradientUnits="userSpaceOnUse">
		<stop  offset="0" style="stop-color:#E5E2DF"/>
		<stop  offset="0" style="stop-color:#F1EFEE"/>
		<stop  offset="0" style="stop-color:#FFFFFF"/>
		<stop  offset="0.1259" style="stop-color:#F0F0F1"/>
		<stop  offset="0.3664" style="stop-color:#C9CACB"/>
		<stop  offset="0.5225" style="stop-color:#ADAEB0"/>
		<stop  offset="0.6029" style="stop-color:#A3A5A7"/>
		<stop  offset="0.7382" style="stop-color:#898D90"/>
		<stop  offset="0.9108" style="stop-color:#5F6769"/>
		<stop  offset="1" style="stop-color:#465053"/>
	</radialGradient>
	<circle style="fill:url(#SVGID_00000078022602625648991430000017916824789043712132_);" cx="10.9" cy="14.7" r="0.2"/>
	<g>
		<path class="st0" d="M6.9,8.8c0.5,0,1.2,0,1.7-0.1v0.2C8.1,9.1,7.4,9.1,7,9.1L6.9,8.8z M8.5,7.8c0,0.4-0.3,0.7-0.7,0.7
			C7.4,8.5,7,8.2,7,7.8c0-0.4,0.3-0.7,0.7-0.7C8.1,7.1,8.5,7.4,8.5,7.8z M7.3,7.8c0,0.2,0.2,0.4,0.4,0.4C8,8.2,8.1,8,8.1,7.8
			S7.9,7.4,7.7,7.4S7.3,7.6,7.3,7.8z M9.1,7v2.7H8.8V7H9.1z"/>
		<path class="st0" d="M11.1,8.5c-0.3-0.1-0.5-0.3-0.6-0.6c-0.1,0.3-0.3,0.5-0.7,0.7L9.7,8.3c0.4-0.1,0.7-0.5,0.7-0.9l0,0H9.8V7.1
			h1.5v0.2h-0.6l0,0c0,0.3,0.2,0.7,0.6,0.8L11.1,8.5z M11.9,9.2c0,0.3-0.3,0.5-0.9,0.5c-0.6,0-0.9-0.2-0.9-0.5s0.3-0.5,0.9-0.5
			C11.6,8.6,11.9,8.8,11.9,9.2z M11.6,9.2c0-0.2-0.2-0.3-0.6-0.3c-0.4,0-0.6,0.1-0.6,0.3s0.2,0.3,0.6,0.3
			C11.4,9.4,11.6,9.3,11.6,9.2z M11.6,7.6V7h0.3v1.6h-0.3V7.9h-0.5V7.6H11.6z"/>
		<path class="st0" d="M14.9,8.8h-1.1v0.9h-0.3V8.8h-1.1V8.5h2.5C14.9,8.5,14.9,8.8,14.9,8.8z M14.6,8.2h-1.9V7.1H13v0.3h1.2V7.1
			h0.3v1.1H14.6z M14.3,7.7H13V8h1.2V7.7H14.3z"/>
	</g>
</g>
</svg>
