<?xml version="1.0" encoding="utf-8"?>
<!-- Generator: Adobe Illustrator 25.4.1, SVG Export Plug-In . SVG Version: 6.00 Build 0)  -->
<svg version="1.1" id="레이어_1" xmlns="http://www.w3.org/2000/svg" xmlns:xlink="http://www.w3.org/1999/xlink" x="0px"
	 y="0px" viewBox="0 0 22 30" style="enable-background:new 0 0 22 30;" xml:space="preserve">
<style type="text/css">
	.st0{fill:#FFFFFF;}
	.st1{fill:#EF5264;}
	.st2{fill:#6FB4D4;}
	.st3{fill:#CCCCCC;}
	.st4{fill:#F2F2F2;}
	.st5{fill:#B49313;}
	.st6{fill:#F0C419;}
	.st7{fill:#98856E;}
	.st8{fill:#CBB292;}
	.st9{fill:#993839;}
	.st10{fill:#CC4B4C;}
	.st11{fill:#B0D3F0;}
	.st12{fill:#849EB4;}
	.st13{fill:#559264;}
	.st14{fill:#71C285;}
	.st15{fill:#999999;}
</style>
<circle class="st0" cx="10.9" cy="11" r="9.5"/>
<rect x="5.9" y="20.1" class="st1" width="10.1" height="1.8"/>
<path class="st2" d="M12.1,0.3c-1-0.1-1.8-0.1-2.5,0C1.9,1.6,0.2,8,0.2,10.7c0,0.1,0,0.2,0,0.3c0.1,2.7,1.5,5.1,1.5,5.1l9.2,13.5
	c0,0,0.1,0.2,0.2,0l0.1-0.1c0.1-0.2,0.3-0.4,0.5-0.7l0.2-0.3c0-0.1,0.1-0.1,0.1-0.1l8.4-12.4c0,0,1.4-2.4,1.5-5.1c0-0.1,0-0.2,0-0.3
	C21.7,8,19.9,1.6,12.1,0.3z M10.9,20.1c-5,0-9.1-4.1-9.1-9.1c0-5,4.1-9.1,9.1-9.1S20,5.9,20,11C20,16,15.9,20.1,10.9,20.1z"/>
<g>
	<rect x="8.6" y="5.9" class="st3" width="4.4" height="10.1"/>
	<rect x="8.6" y="5.9" class="st4" width="3.7" height="10.1"/>
	<rect x="9.7" y="11.6" class="st5" width="2.2" height="0.9"/>
	<rect x="9.7" y="11.6" class="st6" width="1.5" height="0.9"/>
	<path class="st7" d="M9.4,16v-1.3c0-0.7,0.6-1.3,1.3-1.3l0,0c0.7,0,1.3,0.6,1.3,1.3V16"/>
	<path class="st8" d="M10.4,13.4c-0.6,0.2-1,0.7-1,1.3V16h2v-1.3C11.4,14.1,11,13.5,10.4,13.4z"/>
	<rect x="13" y="9.4" class="st3" width="3.5" height="6.6"/>
	<rect x="13" y="9.4" class="st4" width="2.9" height="6.6"/>
	<rect x="5" y="9.4" class="st3" width="3.5" height="6.6"/>
	<rect x="5" y="9.4" class="st4" width="2.9" height="6.6"/>
	<rect x="5" y="15.1" class="st9" width="3.5" height="0.9"/>
	<rect x="5" y="15.1" class="st10" width="2.9" height="0.9"/>
	<rect x="13" y="15.1" class="st9" width="3.5" height="0.9"/>
	<rect x="13" y="15.1" class="st10" width="2.9" height="0.9"/>
	<rect x="5.9" y="10.3" class="st11" width="0.9" height="1.3"/>
	<rect x="6.8" y="10.3" class="st12" width="0.9" height="1.3"/>
	<rect x="6.8" y="11.6" class="st11" width="0.9" height="1.3"/>
	<rect x="5.9" y="11.6" class="st12" width="0.9" height="1.3"/>
	<rect x="5.9" y="12.9" class="st11" width="0.9" height="1.3"/>
	<rect x="6.8" y="12.9" class="st12" width="0.9" height="1.3"/>
	<rect x="13.8" y="12.9" class="st12" width="0.9" height="1.3"/>
	<rect x="14.7" y="12.9" class="st11" width="0.9" height="1.3"/>
	<rect x="14.7" y="11.6" class="st12" width="0.9" height="1.3"/>
	<rect x="13.8" y="11.6" class="st11" width="0.9" height="1.3"/>
	<rect x="13.8" y="10.3" class="st12" width="0.9" height="1.3"/>
	<rect x="14.7" y="10.3" class="st11" width="0.9" height="1.3"/>
	<circle class="st13" cx="10.8" cy="8.1" r="1.3"/>
	<ellipse class="st14" cx="10.4" cy="8.1" rx="1" ry="1.3"/>
	<polyline class="st9" points="8.6,5.9 10.8,3.7 13,5.9 	"/>
	<polygon class="st10" points="8.6,5.9 12.3,5.9 10.4,4 	"/>
	<rect x="11" y="14.7" class="st15" width="0.4" height="0.4"/>
	<path class="st15" d="M11,8.7l-0.4-0.4c0,0-0.1-0.1-0.1-0.2V7.4H11V8l0.4,0.4L11,8.7z"/>
</g>
</svg>
