<?xml version="1.0" encoding="utf-8"?>
<!-- Generator: Adobe Illustrator 25.4.1, SVG Export Plug-In . SVG Version: 6.00 Build 0)  -->
<svg version="1.1" id="레이어_1" xmlns="http://www.w3.org/2000/svg" xmlns:xlink="http://www.w3.org/1999/xlink" x="0px"
	 y="0px" viewBox="0 0 22 30" style="enable-background:new 0 0 22 30;" xml:space="preserve">
<style type="text/css">
	.st0{fill:#FFFFFF;}
	.st1{fill:#EF5264;}
	.st2{fill:#BCD55F;}
	.st3{fill:#228CFF;}
	.st4{fill:#469CF9;}
	.st5{fill:#E5E5E5;}
	.st6{fill:#248BFC;}
</style>
<circle class="st0" cx="10.9" cy="11" r="9.5"/>
<rect x="5.9" y="20.1" class="st1" width="10.1" height="1.8"/>
<path class="st2" d="M12.1,0.3c-1-0.1-1.8-0.1-2.5,0C1.9,1.6,0.2,8,0.2,10.7c0,0.1,0,0.2,0,0.3c0.1,2.7,1.5,5.1,1.5,5.1l9.2,13.5
	c0,0,0.1,0.2,0.2,0l0.1-0.1c0.1-0.2,0.3-0.4,0.5-0.7l0.2-0.3c0-0.1,0.1-0.1,0.1-0.1l8.4-12.4c0,0,1.4-2.4,1.5-5.1c0-0.1,0-0.2,0-0.3
	C21.7,8,19.9,1.6,12.1,0.3z M10.9,20.1c-5,0-9.1-4.1-9.1-9.1c0-5,4.1-9.1,9.1-9.1S20,5.9,20,11C20,16,15.9,20.1,10.9,20.1z"/>
<g>
	<circle class="st3" cx="10.9" cy="11" r="6.7"/>
	<path class="st4" d="M4.2,11c0,2,0.9,3.9,2.4,5.1c4.3-0.5,7.6-3.9,7.6-8.1c0-1.1-0.2-2.2-0.7-3.1c-3.4-1.5-7.3,0.1-8.8,3.4
		C4.4,9.2,4.2,10.1,4.2,11z"/>
	<circle class="st5" cx="10.9" cy="11" r="5.2"/>
	<path class="st0" d="M5.7,11c0,2,1.1,3.8,2.9,4.6c3.3-1.2,5.6-4.1,5.6-7.6c0-0.4,0-0.7-0.1-1.1c-2.2-1.8-5.5-1.5-7.3,0.8
		C6.1,8.6,5.7,9.8,5.7,11z"/>
	<path class="st6" d="M9.1,7.6v6.7h1.5v-2.2h0.7c1.2,0,2.2-1,2.2-2.2l0,0c0-1.2-1-2.2-2.2-2.2H9.1z"/>
	<path class="st0" d="M10.5,10.6V9.1h0.7c0.4,0,0.7,0.3,0.7,0.7l0,0c0,0.4-0.3,0.7-0.7,0.7H10.5z"/>
</g>
</svg>
