<?xml version="1.0" encoding="utf-8"?>
<!-- Generator: Adobe Illustrator 25.4.1, SVG Export Plug-In . SVG Version: 6.00 Build 0)  -->
<svg version="1.1" id="레이어_1" xmlns="http://www.w3.org/2000/svg" xmlns:xlink="http://www.w3.org/1999/xlink" x="0px"
	 y="0px" viewBox="0 0 22 30" style="enable-background:new 0 0 22 30;" xml:space="preserve">
<style type="text/css">
	.st0{fill:#FFFFFF;}
	.st1{fill:#EF5264;}
	.st2{fill:url(#SVGID_1_);}
	.st3{fill:url(#SVGID_00000087408388448707022490000000862756995421675699_);}
	.st4{fill:#242424;}
	.st5{fill-rule:evenodd;clip-rule:evenodd;fill:#4C4C4C;}
	.st6{fill-rule:evenodd;clip-rule:evenodd;}
	.st7{fill:url(#SVGID_00000161596614974078531490000014520061886976208281_);}
	
		.st8{fill:none;stroke:url(#SVGID_00000083051935762921240510000016718634453467317424_);stroke-width:0.1754;stroke-linecap:round;stroke-linejoin:round;stroke-miterlimit:5.6132;}
	.st9{fill:url(#SVGID_00000040563934404151497590000001980572793831915415_);}
	
		.st10{fill:none;stroke:url(#SVGID_00000155118478726603011010000005100928459236543400_);stroke-width:0.1754;stroke-linecap:round;stroke-linejoin:round;stroke-miterlimit:5.6132;}
	.st11{fill:url(#SVGID_00000178925839985832801350000002608703865052396185_);}
	
		.st12{fill:none;stroke:url(#SVGID_00000015313023835607656090000015745839803803426965_);stroke-width:0.1754;stroke-linecap:round;stroke-linejoin:round;stroke-miterlimit:5.6132;}
	.st13{fill:#72C75E;}
</style>
<circle class="st0" cx="10.9" cy="11" r="9.5"/>
<rect x="5.9" y="20.1" class="st1" width="10.1" height="1.8"/>
<g>
	
		<radialGradient id="SVGID_1_" cx="217.3244" cy="-204.6851" r="2.3393" gradientTransform="matrix(1.2215 0.4913 0.232 -0.5769 -205.6097 -219.8495)" gradientUnits="userSpaceOnUse">
		<stop  offset="0" style="stop-color:#C6C6C6"/>
		<stop  offset="0.5769" style="stop-color:#393939"/>
		<stop  offset="1" style="stop-color:#000000"/>
	</radialGradient>
	<path class="st2" d="M13.2,5.7c0,0.7-0.9,1.4-2.1,1.4c-1.2,0-2.2-0.6-2.2-1.3c0,0,0,0,0,0C8.9,5,9.8,4.4,11,4.4
		C12.2,4.4,13.2,5,13.2,5.7C13.2,5.7,13.2,5.7,13.2,5.7z"/>
	
		<linearGradient id="SVGID_00000149381440359335699250000005998943797288833932_" gradientUnits="userSpaceOnUse" x1="105.382" y1="-98.1455" x2="110.904" y2="-98.1455" gradientTransform="matrix(1 0 0 -1 -97.143 -85.14)">
		<stop  offset="0" style="stop-color:#000000"/>
		<stop  offset="0.1178" style="stop-color:#2A2A2A"/>
		<stop  offset="0.6806" style="stop-color:#2A2A2A"/>
		<stop  offset="0.8894" style="stop-color:#292929"/>
		<stop  offset="1" style="stop-color:#B1B1B1"/>
	</linearGradient>
	<path style="fill:url(#SVGID_00000149381440359335699250000005998943797288833932_);" d="M8.2,5.6h5.5v14.9H8.2V5.6z"/>
	<path class="st4" d="M8.7,5.9h4.7v4.7H8.7V5.9z"/>
	<path class="st5" d="M13.4,5.8H8.7L8.9,6h4.3L13.4,5.8L13.4,5.8z"/>
	<path class="st6" d="M13.4,10.6H8.7l0.2-0.2h4.4L13.4,10.6L13.4,10.6z"/>
	<path class="st6" d="M8.7,5.8v4.8l0.2-0.2V6L8.7,5.8L8.7,5.8z"/>
	<path class="st5" d="M13.4,5.8v4.7l-0.2-0.2V6L13.4,5.8L13.4,5.8z"/>
	
		<radialGradient id="SVGID_00000107557950718015135190000003879939143941978513_" cx="247.5551" cy="-208.103" r="1.2698" gradientTransform="matrix(1.9189 -9.175899e-03 -8.715195e-03 -1.8225 -465.3184 -369.3284)" gradientUnits="userSpaceOnUse">
		<stop  offset="0" style="stop-color:#FFB1B1"/>
		<stop  offset="0.4417" style="stop-color:#D60000"/>
		<stop  offset="0.8203" style="stop-color:#D60000"/>
		<stop  offset="1" style="stop-color:#A10000"/>
	</radialGradient>
	<path style="fill:url(#SVGID_00000107557950718015135190000003879939143941978513_);" d="M12.8,8.2c0,1-0.8,1.8-1.8,1.8
		S9.2,9.2,9.2,8.2c0,0,0,0,0,0c0-1,0.8-1.8,1.8-1.8C12,6.4,12.8,7.2,12.8,8.2C12.8,8.2,12.8,8.2,12.8,8.2z"/>
	
		<linearGradient id="SVGID_00000045607026929989739030000009993572447989615753_" gradientUnits="userSpaceOnUse" x1="184.8337" y1="-182.0703" x2="184.8337" y2="-184.6646" gradientTransform="matrix(1.4033 0 0 -1.4033 -248.3566 -249.0577)">
		<stop  offset="0" style="stop-color:#373737"/>
		<stop  offset="0.2596" style="stop-color:#363636"/>
		<stop  offset="0.5192" style="stop-color:#000000"/>
		<stop  offset="1" style="stop-color:#323232"/>
	</linearGradient>
	
		<path style="fill:none;stroke:url(#SVGID_00000045607026929989739030000009993572447989615753_);stroke-width:0.1754;stroke-linecap:round;stroke-linejoin:round;stroke-miterlimit:5.6132;" d="
		M12.8,8.2c0,1-0.8,1.8-1.8,1.8S9.2,9.2,9.2,8.2c0,0,0,0,0,0c0-1,0.8-1.8,1.8-1.8C12,6.4,12.8,7.2,12.8,8.2
		C12.8,8.2,12.8,8.2,12.8,8.2z"/>
	<g transform="translate(0 205)">
		<path class="st4" d="M8.7-194.4h4.7v4.7H8.7V-194.4z"/>
		<path class="st5" d="M13.4-194.4H8.7l0.2,0.2h4.3L13.4-194.4L13.4-194.4z"/>
		<path class="st6" d="M13.4-189.6H8.7l0.2-0.2h4.4L13.4-189.6L13.4-189.6z"/>
		<path class="st6" d="M8.7-194.4v4.8l0.2-0.2v-4.4L8.7-194.4L8.7-194.4z"/>
		<path class="st5" d="M13.4-194.4v4.7l-0.2-0.2v-4.4L13.4-194.4L13.4-194.4z"/>
	</g>
	
		<radialGradient id="SVGID_00000060003942712946866260000007465466837934915715_" cx="248.054" cy="-98.25" r="1.2698" gradientTransform="matrix(1.9189 -9.175899e-03 -8.715195e-03 -1.8225 -465.3184 -164.3254)" gradientUnits="userSpaceOnUse">
		<stop  offset="0" style="stop-color:#FFF2B1"/>
		<stop  offset="0.4417" style="stop-color:#D6B000"/>
		<stop  offset="0.8203" style="stop-color:#D6B000"/>
		<stop  offset="1" style="stop-color:#A18500"/>
	</radialGradient>
	<path style="fill:url(#SVGID_00000060003942712946866260000007465466837934915715_);" d="M12.8,13c0,1-0.8,1.8-1.8,1.8
		S9.2,14,9.2,13c0,0,0,0,0,0c0-1,0.8-1.8,1.8-1.8S12.8,12,12.8,13C12.8,13,12.8,13,12.8,13z"/>
	
		<linearGradient id="SVGID_00000008129797426670282330000006942209649960623021_" gradientUnits="userSpaceOnUse" x1="184.8337" y1="-39.4011" x2="184.8337" y2="-41.9953" gradientTransform="matrix(1.4033 0 0 -1.4033 -248.3566 -44.0547)">
		<stop  offset="0" style="stop-color:#373737"/>
		<stop  offset="0.2596" style="stop-color:#363636"/>
		<stop  offset="0.5192" style="stop-color:#000000"/>
		<stop  offset="1" style="stop-color:#323232"/>
	</linearGradient>
	
		<path style="fill:none;stroke:url(#SVGID_00000008129797426670282330000006942209649960623021_);stroke-width:0.1754;stroke-linecap:round;stroke-linejoin:round;stroke-miterlimit:5.6132;" d="
		M12.8,13c0,1-0.8,1.8-1.8,1.8S9.2,14,9.2,13c0,0,0,0,0,0c0-1,0.8-1.8,1.8-1.8S12.8,12,12.8,13C12.8,13,12.8,13,12.8,13z"/>
	<g transform="translate(0 410)">
		<path class="st4" d="M8.7-394.6h4.7v4.7H8.7V-394.6z"/>
		<path class="st5" d="M13.4-394.6H8.7l0.2,0.2h4.3L13.4-394.6L13.4-394.6z"/>
		<path class="st6" d="M13.4-389.8H8.7l0.2-0.2h4.4L13.4-389.8L13.4-389.8z"/>
		<path class="st6" d="M8.7-394.6v4.8l0.2-0.2v-4.4L8.7-394.6L8.7-394.6z"/>
		<path class="st5" d="M13.4-394.6v4.7l-0.2-0.2v-4.4L13.4-394.6L13.4-394.6z"/>
	</g>
	
		<radialGradient id="SVGID_00000059267387259568938410000005404265631972069512_" cx="248.5428" cy="11.5997" r="1.2698" gradientTransform="matrix(1.9189 -9.175899e-03 -8.715195e-03 -1.8225 -465.2984 40.6716)" gradientUnits="userSpaceOnUse">
		<stop  offset="0" style="stop-color:#89FFA2"/>
		<stop  offset="0.4259" style="stop-color:#00AE24"/>
		<stop  offset="0.8203" style="stop-color:#00AE24"/>
		<stop  offset="1" style="stop-color:#007818"/>
	</radialGradient>
	<path style="fill:url(#SVGID_00000059267387259568938410000005404265631972069512_);" d="M12.8,17.8c0,1-0.8,1.8-1.8,1.8
		s-1.8-0.8-1.8-1.8c0,0,0,0,0,0c0-1,0.8-1.8,1.8-1.8S12.8,16.8,12.8,17.8C12.8,17.8,12.8,17.8,12.8,17.8z"/>
	
		<linearGradient id="SVGID_00000114756980930632745550000010328589837895448713_" gradientUnits="userSpaceOnUse" x1="184.8198" y1="103.264" x2="184.8198" y2="100.6697" gradientTransform="matrix(1.4033 0 0 -1.4033 -248.3366 160.9423)">
		<stop  offset="0" style="stop-color:#373737"/>
		<stop  offset="0.2596" style="stop-color:#363636"/>
		<stop  offset="0.5192" style="stop-color:#000000"/>
		<stop  offset="1" style="stop-color:#323232"/>
	</linearGradient>
	
		<path style="fill:none;stroke:url(#SVGID_00000114756980930632745550000010328589837895448713_);stroke-width:0.1754;stroke-linecap:round;stroke-linejoin:round;stroke-miterlimit:5.6132;" d="
		M12.8,17.8c0,1-0.8,1.8-1.8,1.8s-1.8-0.8-1.8-1.8c0,0,0,0,0,0c0-1,0.8-1.8,1.8-1.8S12.8,16.8,12.8,17.8
		C12.8,17.8,12.8,17.8,12.8,17.8z"/>
</g>
<path class="st13" d="M12.1,0.3c-1-0.1-1.8-0.1-2.5,0C1.9,1.6,0.2,8,0.2,10.7c0,0.1,0,0.2,0,0.3c0.1,2.7,1.5,5.1,1.5,5.1l9.2,13.5
	c0,0,0.1,0.2,0.2,0l0.1-0.1c0.1-0.2,0.3-0.4,0.5-0.7l0.2-0.3c0-0.1,0.1-0.1,0.1-0.1l8.4-12.4c0,0,1.4-2.4,1.5-5.1c0-0.1,0-0.2,0-0.3
	C21.7,8,19.9,1.6,12.1,0.3z M10.9,20.1c-5,0-9.1-4.1-9.1-9.1c0-5,4.1-9.1,9.1-9.1S20,5.9,20,11C20,16,15.9,20.1,10.9,20.1z"/>
</svg>
