<?xml version="1.0" encoding="utf-8"?>
<!-- Generator: Adobe Illustrator 25.4.1, SVG Export Plug-In . SVG Version: 6.00 Build 0)  -->
<svg version="1.1" id="레이어_1" xmlns="http://www.w3.org/2000/svg" xmlns:xlink="http://www.w3.org/1999/xlink" x="0px"
	 y="0px" viewBox="0 0 114 114" style="enable-background:new 0 0 114 114;" xml:space="preserve">
<style type="text/css">
	.st0{fill-rule:evenodd;clip-rule:evenodd;fill:#939393;}
	.st1{enable-background:new    ;}
	.st2{fill:#FFFFFF;}
</style>
<path class="st0" d="M23.6,58C11.7,63.4,3.9,71.5,3.9,80.8c0,10,9,18.6,22.4,23.9c1,0.4,1.5,1.5,1.1,2.6c-0.4,1-1.5,1.5-2.6,1.1
	C9.7,102.3,0,92.1,0,80.8C0,69.3,10.1,58.9,25.7,53c0.7-0.3,1.5-0.1,2,0.4s0.8,1.3,0.5,2c-0.6,1.8-0.9,3.5-0.9,5.1
	c0,2.2,0.2,4.3,0.7,6.4c0.2,0.8-0.1,1.6-0.8,2c-4.5,3.3-7.3,7.4-7.3,11.9c0,4.3,2.6,8.3,6.7,11.5c6.8,5.3,17.8,8.6,30.2,8.6
	c11.7,0,22.1-3,29-7.7c0.9-0.6,2.1-0.4,2.7,0.5s0.4,2.1-0.5,2.7c-7.4,5.1-18.6,8.4-31.2,8.4c-13.4,0-25.2-3.8-32.6-9.5
	c-5.3-4.1-8.3-9.2-8.3-14.6c0-5.3,2.9-10.3,7.9-14.3c-0.4-1.9-0.5-3.9-0.5-6C23.5,59.7,23.5,58.9,23.6,58L23.6,58z"/>
<path class="st0" d="M88.7,65.4c3.3,2.4,5.9,5.2,7.4,8.2c0.5,1,0.1,2.2-0.9,2.6c-1,0.5-2.2,0.1-2.6-0.8c-1.4-2.8-3.9-5.3-7.2-7.5
	c-0.7-0.4-1-1.2-0.8-2c0.3-1.8,0.5-3.6,0.5-5.5c0-1.7-0.3-3.7-0.7-5.8c-0.2-0.7,0.1-1.4,0.6-1.9s1.3-0.6,2-0.4
	c16.4,5.9,27.1,16.5,27.1,28.3c0,7.5-4.2,14.4-11.4,20C92.3,108.8,75.7,114,57,114c-1.1,0-2-0.9-2-2s0.9-2,2-2
	c17.7,0,33.5-4.8,43.2-12.4c6.1-4.8,9.9-10.6,9.9-16.9c0-9.7-8.5-18.1-21.2-23.4c0.1,1.1,0.2,2.1,0.2,3.1
	C89,62.2,88.9,63.8,88.7,65.4L88.7,65.4z"/>
<path class="st0" d="M79.8,33C72,18.2,61.4,4,57.6,0.5C57-0.1,56-0.2,55.3,0.3c-0.7,0.4-1.1,1.3-0.9,2.1c0.3,1.6-0.2,3.5-1.1,5.7
	c-1.7,3.9-4.8,8.5-8.3,13.4c-5.5,7.6-12,16-16.4,23.8c-3.1,5.5-5.1,10.7-5.1,15.2c0,18.1,14.7,32.8,32.8,32.8S89,78.6,89,60.5
	C89,53.2,85.1,43,79.8,33z"/>
<g class="st1">
	<path class="st2" d="M41.6,53.8h4.3c2.5,0,4.6,0.7,4.6,3.1c0,1.1-0.7,2.3-1.6,2.6v0.1c1.2,0.3,2.2,1.2,2.2,2.9
		c0,2.5-2.1,3.6-4.8,3.6h-4.6V53.8z M45.7,58.6c1.2,0,1.8-0.5,1.8-1.4c0-0.9-0.5-1.2-1.8-1.2h-1.2v2.6
		C44.5,58.6,45.7,58.6,45.7,58.6z M46,63.8c1.4,0,2.2-0.5,2.2-1.5s-0.7-1.4-2.2-1.4h-1.4v3H46z"/>
	<path class="st2" d="M52.3,63.4c0-2,1.5-3.1,5.2-3.4c-0.1-0.8-0.4-1.2-1.4-1.2c-0.8,0-1.5,0.3-2.4,0.8l-1-2
		c1.2-0.8,2.5-1.2,4.1-1.2c2.4,0,3.9,1.3,3.9,4.3V66h-2.4l-0.2-1h-0.1c-0.8,0.7-1.7,1.2-2.6,1.2C53.4,66.3,52.3,65,52.3,63.4z
		 M57.5,63.2v-1.5c-1.9,0.2-2.4,0.8-2.4,1.4c0,0.5,0.4,0.8,1,0.8C56.7,64,57.2,63.7,57.5,63.2z"/>
	<path class="st2" d="M62.2,61.4c0-3.1,2-5,3.9-5c1,0,1.7,0.3,2.3,1L68.3,56v-3.1h3v13.2h-2.4l-0.2-0.9h-0.1
		c-0.7,0.7-1.5,1.1-2.4,1.1C63.8,66.3,62.2,64.4,62.2,61.4z M68.3,63v-3.7c-0.4-0.4-1-0.6-1.4-0.6c-0.8,0-1.5,0.8-1.5,2.5
		c0,1.8,0.5,2.5,1.7,2.5C67.5,63.9,68,63.7,68.3,63z"/>
</g>
</svg>
