<?xml version="1.0" encoding="utf-8"?>
<!-- Generator: Adobe Illustrator 25.4.1, SVG Export Plug-In . SVG Version: 6.00 Build 0)  -->
<svg version="1.1" id="레이어_1" xmlns="http://www.w3.org/2000/svg" xmlns:xlink="http://www.w3.org/1999/xlink" x="0px"
	 y="0px" viewBox="0 0 22 30" style="enable-background:new 0 0 22 30;" xml:space="preserve">
<style type="text/css">
	.st0{fill:#FFFFFF;}
	.st1{fill:#72C75E;}
	.st2{fill:#808080;}
	.st3{fill:#CCCCCC;}
	.st4{fill:#B3B3B3;}
	.st5{fill:#E6E6E6;}
	.st6{fill:#4D4D4D;}
</style>
<circle class="st0" cx="10.9" cy="11" r="9.5"/>
<path class="st1" d="M12.1,0.3c-1-0.1-1.8-0.1-2.5,0C1.9,1.6,0.2,8,0.2,10.7c0,0.1,0,0.2,0,0.3c0.1,2.7,1.5,5.1,1.5,5.1l9.2,13.5
	c0,0,0.1,0.2,0.2,0l0.1-0.1c0.1-0.2,0.3-0.4,0.5-0.7l0.2-0.3c0-0.1,0.1-0.1,0.1-0.1l8.4-12.4c0,0,1.4-2.4,1.5-5.1c0-0.1,0-0.2,0-0.3
	C21.7,8,19.9,1.6,12.1,0.3z M10.9,20.1c-5,0-9.1-4.1-9.1-9.1c0-5,4.1-9.1,9.1-9.1S20,5.9,20,11C20,16,15.9,20.1,10.9,20.1z"/>
<g>
	<g>
		<g>
			<polygon class="st2" points="17.6,10.2 17.6,10.8 16.9,10.8 16.9,14.8 17.6,14.8 17.6,15.5 18.3,15.5 18.3,10.2 			"/>
		</g>
		<g>
			<polygon class="st3" points="11.6,13.4 11.6,12.3 16.9,12.3 16.9,13.4 			"/>
			<path class="st3" d="M16.9,12.3v1h-5.3v-1H16.9 M16.9,12.3h-5.3v1.1h5.3V12.3L16.9,12.3z"/>
		</g>
		<g>
			<g>
				<path class="st4" d="M13.7,14.1l-1,0.6c-0.4,0.2-0.8,0.1-1-0.3L10,11.6l2.3-1.3l1.6,2.8C14.2,13.4,14.1,13.9,13.7,14.1z"/>
			</g>
			<g>
				<path class="st3" d="M16.5,8.1L6.1,14.1c-0.4,0.2-0.8,0.1-1-0.3L3.5,11l11.6-6.7l1.6,2.8C16.9,7.5,16.8,7.9,16.5,8.1z"/>
			</g>
			<g>
				<path class="st5" d="M2,11.6L15,4.1c0.2-0.1,0.5-0.1,0.7,0l1.6,1.2L4.3,12.6c-0.2,0.1-0.4,0.1-0.6,0L2,11.6z"/>
			</g>
			<g>
				<rect x="4.2" y="10.2" transform="matrix(0.866 -0.5 0.5 0.866 -3.724 6.8202)" class="st4" width="13.4" height="0.3"/>
			</g>
		</g>
	</g>
	<path class="st6" d="M12.5,7.1l0.2,0c0,0.1,0,0.1,0,0.2c0,0,0,0.1-0.1,0.1c0,0-0.1,0.1-0.1,0.1c-0.1,0-0.1,0.1-0.2,0.1
		c-0.1,0-0.1,0-0.2,0S12.1,7.4,12,7.3C12,7.2,12,7.1,12,7c0-0.1,0.1-0.2,0.2-0.2c0.1,0,0.2-0.1,0.2-0.1c0.1,0,0.1,0,0.2,0.1L12.4,7
		c0,0,0,0,0,0c0,0,0,0-0.1,0c0,0,0,0-0.1,0c0,0-0.1,0.1-0.1,0.1c0,0,0,0.1,0,0.1c0,0.1,0.1,0.1,0.1,0.1c0,0,0.1,0,0.1,0
		c0,0,0.1-0.1,0.1-0.1C12.6,7.2,12.6,7.2,12.5,7.1z"/>
	<path class="st6" d="M13.3,6.7l0.2,0c0,0.1,0,0.1,0,0.2c0,0,0,0.1-0.1,0.1c0,0-0.1,0.1-0.1,0.1c-0.1,0-0.1,0.1-0.2,0.1
		c-0.1,0-0.1,0-0.2,0c-0.1,0-0.1-0.1-0.2-0.2c-0.1-0.1-0.1-0.2-0.1-0.3c0-0.1,0.1-0.2,0.2-0.2c0.1,0,0.2-0.1,0.2-0.1
		c0.1,0,0.1,0,0.2,0.1l-0.2,0.1c0,0,0,0,0,0c0,0,0,0-0.1,0c0,0,0,0-0.1,0c0,0-0.1,0.1-0.1,0.1c0,0,0,0.1,0,0.1
		c0,0.1,0.1,0.1,0.1,0.1c0,0,0.1,0,0.1,0c0,0,0.1-0.1,0.1-0.1C13.3,6.8,13.3,6.7,13.3,6.7z"/>
	<path class="st6" d="M13.3,6.2l0.6-0.4L14,6l-0.2,0.1L14,6.6l-0.2,0.1l-0.3-0.5l-0.2,0.1L13.3,6.2z"/>
	<path class="st6" d="M13.9,5.8l0.2-0.1l0.4,0.4l-0.1-0.6l0.2-0.1l0.1,0.8l-0.2,0.1L13.9,5.8z"/>
</g>
</svg>
