<?xml version="1.0" encoding="utf-8"?>
<!-- Generator: Adobe Illustrator 25.4.1, SVG Export Plug-In . SVG Version: 6.00 Build 0)  -->
<svg version="1.1" id="레이어_1" xmlns:gg="http:/grass.itc.it/2006/gg"
	 xmlns="http://www.w3.org/2000/svg" xmlns:xlink="http://www.w3.org/1999/xlink" x="0px" y="0px" viewBox="0 0 8192 6686.5"
	 style="enable-background:new 0 0 8192 6686.5;" xml:space="preserve">
<style type="text/css">
	.st0{fill:#323232;stroke:#505050;stroke-width:14;stroke-miterlimit:2.5565;}
	.st1{fill:none;}
	.st2{fill:#FFFFFF;}
</style>
<polygon class="st0" points="82.3,1266.4 107.9,1266.4 131.1,1250.1 152,1236.2 172.9,1236.2 203.1,1219.9 219.4,1219.9 
	244.9,1243.1 284.4,1266.4 312.3,1266.4 342.5,1266.4 381.9,1284.9 421.3,1302.3 444.6,1302.3 470.2,1324.4 493.4,1340.7 
	516.6,1340.7 542.2,1326.7 560.8,1315.1 584,1302.3 614.2,1302.3 639.7,1322.1 658.3,1326.7 679.2,1359.3 679.2,1377.8 
	714.1,1382.5 714.1,1424.3 714.1,1456.8 746.6,1489.3 765.2,1512.5 765.2,1554.4 783.7,1554.4 809.3,1575.3 827.9,1596.5 
	846.5,1638 862.7,1658.9 862.7,1686.7 883.6,1721.6 916.1,1740.2 934.7,1756.4 962.6,1744.8 978.8,1742.5 990.5,1756.4 
	1018.3,1744.8 1043.9,1756.4 1069.4,1756.4 1095,1742.5 1127.5,1719.3 1137.6,1705.3 1160,1703 1187.9,1707.6 1199.5,1723.9 
	1222.7,1721.6 1239.3,1700.7 1255.2,1707.6 1285.4,1700.7 1306.7,1698.4 1329.5,1698.4 1343.5,1696 1362.1,1698.4 1385.3,1730.9 
	1413.2,1744.8 1473.5,1756.4 1513,1756.4 1543.2,1756.4 1575.7,1756.4 1610.3,1742.5 1626.8,1733.2 1668.6,1716.9 1715.1,1723.9 
	1726.7,1744.8 1752.3,1756.4 1763.9,1777.3 1805.7,1798.2 1831.2,1798.2 1870.7,1798.2 1892.2,1780.7 1918.2,1798.2 1940.4,1823.8 
	1977.5,1833.1 2007.7,1814.5 2021.7,1786.6 2040.3,1775 2061.2,1749.5 2061.2,1716.9 2079.7,1696 2096,1679.8 2119.2,1675.1 
	2135.5,1670.5 2147.1,1698.4 2170.3,1689.1 2186.6,1663.5 2186.6,1633.3 2186.6,1596.5 2170.3,1552 2165.7,1526.5 2204.5,1526.5 
	2221.4,1526.5 2240,1559 2256.3,1575.3 2282,1608.9 2284.1,1635.6 2284.1,1668.2 2284.1,1712.3 2272.5,1756.4 2272.5,1795.9 
	2272.5,1856.2 2284.1,1907.4 2298.4,1979.4 2328.3,2049 2344.5,2111.8 2381.7,2223.3 2411.9,2316.2 2411.9,2346.4 2288.8,2346.4 
	2279.5,2385.8 2121.5,2397.5 2114.6,2363.1 1673.3,2363.1 1654.7,2297.6 1633.8,2258.1 1631.5,2227.9 1610.3,2245.3 1592,2281.3 
	1520,2337.1 1485.2,2363.1 1455,2385.8 1438.7,2363.1 1415.5,2363.1 1399.2,2318.5 1376,2288.3 1355.1,2265.1 1306.7,2227.9 
	1271.5,2232.5 1257.5,2245.3 1239.3,2234.9 1201.8,2232.5 1171.6,2230.2 1137.6,2223.3 1090.3,2245.3 1062.5,2245.3 1036.9,2227.9 
	960.3,2230.2 939.4,2230.2 892.9,2255.8 874.3,2279 841.8,2283.6 804.6,2295.3 772.1,2311.5 725.7,2320.8 695.5,2348.7 
	674.6,2385.8 630.5,2385.8 611.9,2397.5 602.6,2427.6 577,2441.6 556.1,2460.2 530.6,2460.2 500.4,2476.4 465.5,2511.3 
	444.6,2541.5 391.2,2568.5 330.8,2587.9 316.9,2625.1 309.9,2657.6 309.9,2692.4 240.3,2678.5 207.7,2655.3 207.7,2594.9 
	161.3,2578.6 128.8,2568.5 103.2,2543.8 96.3,2527.5 135.7,2496.9 168.3,2443.9 237.9,2402.1 263.5,2363.1 320.6,2333.2 
	333.5,2309.3 321.5,2237.3 309.9,2173.5 303,2151.3 319.2,2128 305.3,2070 279.7,2049.5 272.8,1986.4 226.3,1926 191.5,1891.1 
	135.7,1853.3 112.5,1779.6 107.9,1744.8 107.9,1679.8 110.2,1614.7 100.9,1554.4 96.3,1480 82.3,1440.5 70.6,1366.2 70.6,1317.5 "/>
<path class="st1" d="M1610.3,1689.1"/>
<path class="st0" d="M1610.3,1689.1H1592l-25.5,11.6h-41.8h-39.5h-32.5h-27.9l-25.5-11.6l-13.9-32.5h-30.2l-34.8-11.6h-25.5h-44.1
	l-23.2,16.3l-34.8-2.3l-30.5,2.2l-39.2,0.2l-16.3,11.6l-16.3,16.3l-20.9,11.6h-23.2l-32.5-11.6h-41.8l-25.5,11.6l-34.8-27.9
	l-11.6-18.6l-13.9-27.9l-20.9-29.9l-13.9-30.5l-26.8-16.6l-10.3-34.5l-13.9-30.2l-11.6-27.9l-25.5-20.9v-21l-11.6-34.8l-20.9-18.6
	l-13.9-25.5v-33.7l-34.8-17.4l-37.2-18.6h-48.8h-41.8l-41.8,16.3l-26.4,19.7v-26.7l-13.1-30.2L494,1220l11.6-18.7l30.2-20.7
	l30.2-16.3l32.5-16.3l32.5-18.6l39.5-23.2l20.9-30.2l18.6-18.6l23.2-25.5v-25.5l30.2-30.2l11.6-16.3l23.2-20.9l18.6-18.6l20.9-20.9
	l25.5-23.2v-23.2H879h11.6l16.3-18.6l30.2,13.9l20.9,2.3l30.2,13.9l23.2,11.6l37.2,7l39.5,11.6l27.9,11.6l21.7,7l27.1,7l18.6,9.3
	l27.9,11.6l30.1-9.3l27.9,18.6l13.9,2.3l23.6,2.3l34.5-2.3l13.9-9.3l25.5,16.3l20.9,13.9l25.5,11.6l20.9,4.6l23.2,4.6l20.9-4.6h16.3
	l16.3-18.6l13.9-11.6l16.3-4.6l25.5-2.3l29.9-7l18.9-9.3l37.2,16.3l30.2-11.6l34.8-27.9l13.9-13.9h25.5l11.6,2.3l13.9-11.6
	l23.2-20.9l20.9,11.6l30.2,4.6l23.2,13.9l24.3,11.6l29.1,9.3l23.2,7l23.2,11.6l20.9,25.5l23.2,4.6l23.2-4.6l30.2-7l11.6,4.6
	l23.2,25.5l27.9,11.6l23.2-13.9l16.3-2.3l23.2-7h18.6h16.3l18.6,13.9l28.2,16.3l15.9,13.9l23.2,19.7l16.3,10.5v11.6v18.6l13.9,23.2
	l11.6,25.5l13.9,11.6h18.6h26.1l15.7-7l34.8,4.6l-13.9,30.2l-18.6,32.4l16.3,18.7h16.3l30.2,13.9l25.5,11.6h23.2l20.9,11.6
	l20.9,16.3l20.9,18.6l23.2,10.4h18.6l25.5,17.4l25.5,20.9l27.9,11.6v20.9v31.2v12.9l-11.6,20.9l-7,20.9l-11.6,30.2l-13.9,20.9
	l-4.6,20.9l-7,20.9l-11.6,13.9l-4.6,16.3l-9.3,14.2l11.6,13.6l-13.9,18.6l-26.7,13.9l-10.5,32.5l-2.3,18.6l12.8,18.6v25.5l10.7,21.4
	l-10.7,27.3l-17.5,18.6l4.6,16.3h12.8l22,34.8l7,18.7l-29,25.5l-15.1,16.3l-9.3,18.6l-16.9,24.9l-18-4l-20.9-34.8l-20.9-32.5
	l-9.8-32.6l-11.1-27.8l-7-25.5l-16.3-20.9l-13.9-9.3l-11.6-16.3l-20.5-18.2l-11.5-28.2l-34.9-34.5l-7.4-23.5l-20.9-27.9l-32.5-27.6
	l-23.2-25.9l-20.6-18.6l-18.9-25.5l-9.3-20.9c0,0-11.6-11.6-18.6-18.6s-34.8-11.6-34.8-11.6h-27.9l-25.5,7l-23.2,7l-11.6,13.9v32.5
	l7,34.8v25.9l9.3,25.2H2119l-37.2,2.3l-23.2,11.6l-18.6,23.2v34.8l-4.6,20.9l-23.2,11.6l-23.2,18.6l-9.3,16.3l-9.3,16.3l-23.2-16.3
	l-13.9-11.6l-25.5-4.6l-32.5,7h-39.5c0,0-16.3-7-25.5-16.3c-9.3-9.3-27.9-27.9-27.9-27.9l-25.5-23.2l-25.5-4.6l-18.6-18.6h-23.2
	l-27.9,7l-27.9,18.6l11.8-7.9"/>
<path class="st0" d="M2809,1422l-10.3-24.7l-10.6,24.7v25.5l-13.9,20.9l-9.3,27.9l-13.9,23.2l-11.6,30.2v20.9l-18.6,25.9v18.3v13.9
	l-16.3,30.2l-23.2,11.6l-11.6,18.6l11.6,18.6l7,13.9l-2.3,23.2l2.3,16.3v18.6l-7,23.2l7,11.6l11.6,16.3l13.9,22.4v26.4l-4.6,27.9
	l-18.6,16.3l-20.9,18.6l-13.9,13.9l-15.1,32.5v20.9l-15.1,9.3l15.1,30.2l22,23.3l32.5,27.9l22.1,27.9l33.7,37.2l23.2,41.8l24.6,27.9
	l19.6,27.9l27.9,14.3l27.9,18.2h18.6h23.2l25.5-18.2l17.2,18.2v23.2l24.4,23.2v21.4v20.4l16.5,25.5v30.1v25v32.7l-16.5,44.5
	l37.4-32.5l39.5-30.8l25.5-27.8l23.2-16.8l20.9-31.4l18.6-20.9l25.5-18.1l39.5-33.6l41.8-36.6l23.2-15.9l39.5-21.3l25.5-10.5
	l32.5-20.6l46.5-13l48.8-9.3l62.7-25.5l48.8-13.9l60.4-20.9l32.5-9.3l53.4-11.6l43.1-16.3l40.5-9.3l58.1-16.3l37.2-11.6l37.2-18.6
	h30.2l18.6-18.5l20.9-7l32.5-23.3l27.9-30.9l21.2-24.8l20.8-23.2l25.4-30.2l23.2-16.3l34.4-17.6v-16.1h21.3h39.5h27.9h27.9h23.2
	h34.8l27.9,12l25.5,12.4l18.6,11.7l27.9,4.6l25.5,11.6l25.5,23.2l13.9,25.5l11.6,27.1l11.6,30.9l9.3,21l3.1,21.6l22.3,42.8
	l24.6,20.9l9.4,5.3l12.5,18.6l15.7-7l12.2-18.6v-23.2l9.3-23.2h25.4l15.1-18.7l-15.1-39.5v-18.5l6.4-16.3l8.7-23.2l-26.6-18.5
	l11.5-16.3l14.1-20.9l2.3-20.9l13.9-6.9l14.7-25.5v-20.9c0,0,1.9-4.6,9.9-9.3c8-4.6,28.9-11.6,28.9-11.6l18.6,7l18.2,7l18.9,23.2
	l13.9,12.8l10.9,24.4l12.3,11.7l17.3-11.7h10.5l11.6,53.5l27.9-4.6h23.2l18.6,23.2v18.6l28,13.2l24.3-9.2h24.4l20.9,9.2
	c0,0,20.9-5.4,46.5,0c25.5,5.4,37.2,10,37.2,10l27.9,20.8v-30.9v-24.8l26-41.8l29.8-11.6l20.9-2.3l27.9-23.3l18.6-12.4l18.6-12
	l13.9-24.4l18.6-4.6l18.6-18.6l16.3-9.3v-27.9l39.5-4.6l16.3-4.6v-16.3v-41.8v-20.9l-13.9-37.2l-16.3-34.5l7-18.9l9.3-25.5
	l13.9-20.9l18.6-20.9l20.9-16.3l30.2-13.9l27.9-11.6l25.5-16.3l27.9-2.3l30.2-16.3l18.6-9.3l27.9-19.9l18.6-7.1l11.6-28.7V1320v-49
	v-37.2v-13.9v-18.7v-18.4l20.9-16.3l13.9-13.9l13.9-16.3l22.3-13.9l17.2-9.3h16.3l20.9-13.9h32.5h32.5l27.9-11.6h18.6l13.9-20.9
	l16.3-20.9l9.3-25.5v-18.6l27.9-18.6l16.3-16.3l13.9-18.6l18.6-16.3l18.6-18.6v-32.5l18.6-20.9l27.9-25.5l23.2-24.6l34.8-26.5h23.2
	l11.6,25.3l11.6,1.2v24.6l13.9,39.5l18.6,18.6l13.9,25.5v11.6h27.9l23.2-4.6l24,7l10.8,13.9v20.9l-10.8,13.9v20.9v20.9v13.9
	l10.8-2.3l30.2,4.6l16.3-2.3l9.3,16.3l11.6,27.9l34.8-4.6l25.5-16.3l27.9-20.9l25.5,2.3l23.2-2.3l27.9-9.3l11.6-13.9l18.6-9.3h20.9
	l13.9-13.9l18.6-11.6l18.6-4.6l20.9,9.3l13.9,20.9l16.3,18.6v18.6l20.9,23.2l23.2,30.2v32.5v32.5v23.2l34.8-7l16.3,11.6l37.2,11.5
	l25.5,18.7l18.6-18.7v-25.4l11.6-32.5v-37.2l11.6-16.3v-23.2l11.6-18.6l27.9-2.3l23.2,11.6l13.9-9.3l16.3-11.6l16.3-11.6l16.3-13.9
	l11.6-9.3l13.9-25.5V953v-37.2v-27.9v-32.5v-20.9l-16.3-25.8l-11.6-25.3l-16.3-11.6l-11.6-30.2l-20.9-37.2l2.3-20.9h-25.5h-20.9
	l-7-30.2l-16.3-23.2l-16.3-30.2l-37.2-27.9l-18.6-16.3l-20.9,13.9l-13.9,13.9h-20.9l-13.9-11.6l-20.9-16.3h-30.2l-23.2-11.6
	l-16.3-27.9H6718l-27.9,11.6l-16.3-11.6l-11.6-11.6h-18.6h-20.9h-13.9l-9.3,23.2l-18.6,16.3l-20.9,27.9l-20.9,9.3l-18.6,9.3h-23.2
	h-20.9h-30.2l-20.9,2.3l-23.2-11.6l-20.9-25.5l-13.1-23.2v-27.9V486l17.8-20.9l4.6-37.2l-7-44.1L6368,342v-30.2l-12.4-23.2h-20.9
	l-18.6-16.3l-32.5-20.9h-44.1l-37.2-13.9l-23.2-13.9l-30.2-11.6l-27.9-14l-27.9-18.6l-7-41.8l-2.3-16.3l-11.6-13.9l-9.3-16.3h-11.6
	l-18.6,18.6l-20.9,11.6l-18.6,11.6l-18.6,4.6l-20.9-9.3l-16.3-11.6l-9.3-25.5l-18.6-13.9h-23.2L5851.6,54l-25.5,20.9l-34.8,18.6
	l-32.5,18.6l-23.2,4.6l2.3,18.6l-4.6,27.9l-13.9,18.6l-11.6,27.9l-37.2-23.2l-13.9-9.3l-20.9-9.3l-18.6,11.6l-25.5,25.5l-32.5,16.3
	l-25.5,4.6h-32.5l-27.9,20.9l-32.5,30.2l-20.9,39.5l-30.2-23.2l-18.6-13.9l-16.3-11.6l-23.2,4.6l-18.6-2.3l-27.9,13.9
	c0,0-18.6-4.6-25.5-2.3c-7,2.3-7,2.3-7,2.3l-27.9-7l-11.6,13.9l-9.3,18.6l-30.2,4.6h-16.3h-18.6H5120l-9.3,13.9v20.9l-16.3-7h-25.5
	l-16.3-2.3l-16.3,9.3l-16.3,9.3l-13.9,11.6l-16.3,23.2l-32.5,13.9l-18.6,13.9l-25.5,23.2l-4.6,18.6l-37.9,16.3l-17.9,11.6l-27.9,2.3
	l-18.6,7c0,0,2.3,0-9.3,13.9c-11.6,13.9-23.2,20.9-23.2,20.9l-12.6-2.3l-9.9-2.3l-24-7l-18.6-13.9l-27.9,9.3l-11.6,13.9l-27.9,25.5
	l-17.2,11.6l-29.3,23.2l-23.2,11.6l-9.3,16.3l-11.6,27.9l-11.6,11.6l-11.6,20.9l-23.2,18.6l-23.2,25.5l-23.2,13.9l-13.9,7l-25.5,7
	l-27.9,23.2l-18.6,11.6l-19.1,13l-27.4-6.1l-11.6-11.6l-20.9-7l-27.9,18.6l-27.9,30.2l-25.5,20.9l-20.9,2.3h-23.2h-20.9l-32.5,9.3
	l-18.3,7l-21.2,2.3l-20.9,9.3l-18.6,18.6l-25.5,16.3l-18.6,23.2l-25.5,7l-27.9,13.9l-18.6,16.3l-21.9,30.2l-15.3,41.8l-30.2,41.8
	l-13.9,27.9h-39.5l-26.6-11.6l-33.8,7l-30.2-7l-18.6,18.6l-6.8,28l4.4,25.4l-30.2,7l-37.2,20.7h-30.2h-25.5l-34.8,18.7l-44.1,30.2
	l-30.2,4.6l-30.2-2.3l-39.5,23.2l-25.5,22.1l-27.9,17.4l-30.2,9.3l-20.9-7l-30.2,18.6l-23.2-9.3h-18.6l-41.8,16.3l-37.2,2.3
	l-41.8,13.9l-16.3-11.6l-23.2-20.9h-25.5l-18.6-13.9l-21.2,9.3l-24.4,11.6l-26.5,2.3l-25.5,24.8l-9.3,3.1l-32.5,13.9h-27.9
	L2809,1422z"/>
<path class="st0" d="M4631.4,2174.5h27.9h12.4h25.5l18.6-13.9v-16.3l11.6-13.9l-11.6-13.9l11.6-18.6h13.9l12.2-20.9l7.8-27.9v-27.8
	l-9.9-25.5l4.9-11.6l26.8-23.2v-23.2l-31.8-27.9l9.9-27.9l21.9-28.5v-12.2l24.1,0.3l19.6,33.4l18.9,20.9l24.4,16.3l17.4,20.9
	l12.7,23.2l19.8-7l18.6,4.6l9.3,11.6l16.3,23.2l30.2,19.2h25.6l24.3-14.5l15.1,14.5h13.9h20.9h18.6h39.5l62.7,41.2l12-16.2
	l20.5-13.9v-32.5v-20.9v-25.5l41.8-9.3l20.9-13.9l27.9-18.6l37.2-32.6v-12.2l25.5-0.2l16.3-12l18.6-17.4l18.8-33.4l16,7.9l25.5-13.9
	l19.9-18.6v-32.5l-10.6-16.3v-34.8l-2.3-37.2l-20.9-39.5l9.3-25.5l7-20.9l32.5-25.5l25.5-20.9l32.5-16.3l25.5-13.9h25.5h20.9h16.3
	l23.2-25.5l20.9-11.6l25.5-16.3l13.9-20.9v-30.2v-25.5l16.3-34.4v-15.6l-16.3-22v-23.2v-23.2v-20.9l16.3-16.3l17.7-9.3l10.2-16.3
	l11.6-13.9h16.3l18.6-11.6h20.9l25.5-11.6h25.5l34.8,9.3l20.9-23.2l20.9-13.9l25.5-18.6l16.3-34.8v-20.9l20.9-23.2l9.3-13.9
	l20.9-16.3l18.6-11.6v-13.9l18.6-13.9v-16.3v-16.3l27.9-20.9l13.9-23.2L6193,846h16.3v11.6v20.9l16.3,20.9l11.6,11.6l9.3,16.3
	l9.3,25.5v11.6l18.6,2.3l18.6,2.3l18.6,2.3l13.9-9.3v18.6v25.5v27.9v27.9v27.9l9.3,16.3l33.3-18.6l17.8-7l11.6,2.3l13.9,18.6v30.2
	l32.5-9.3l34.8-9.3l25.5-4.6l32.5-18.6l11.6-7l27.9,2.3l20.9-9.3l20.9-2.3l13.9-9.3l13.9-11.6l13.9-2.3l23.2-4.6l20.9-20.9
	l13.9,11.6l11.6,16.3v18.6l13.9,16.3l13.9,18.6l9.3,16.3v23.2v30.2v27.9l13.9,20.9l25.5,2.3l25.5-2.3l16.3,7l27.9,16.3l23.2,4.6
	l16.3,13.9l9.3,11.6l13.9-18.6l18.6-23.2l13.9-9.3l23.2-2.3l25.5-4.6l18.6,4.6l18.6,23.2l25.5,20.9l16.3-18.6h16.3l27.1-2.3
	l12.4,4.6l20.9,13.9l20.9,13.9l16.3,4.6l20.9-11.6l20.9-2.3l16.3-7l23.2-7l20.9-2.3l20.9,16.3v26.7l18.6,4.6l13.9,24.4l11.6,4.6
	l13.9,16.3l16.3-16.3l30.2-16.3l30.2-17.4l11.6,4.6l16.3,12.8l23.2-17.4l34.8-26.7l44.1-4.6h41.8l13.9-16.3l16.3-7l18.6-9.3
	l20.9-16.3l11.6-4.6l18.6,32.5l25.5,34.8v48.8l27.9,46.5l25.5,34.8l27.9,34.8l27.9,18.6v30.2l11.6,16.3v27.9l11.6,23.2l13.9,25.5
	l-20.9,16.3l9.3,39.5l11.6,37.2v27.9l11.6,4.6l18.6,25.5l23.2,32.5l39.5,13.9l41.8,9.3l32.5,16.3v62.7l20.9,51.1l9.3,44.1l16.3,58.1
	l-11.6,67.4l-23.2,81.3h-34.8l-34.8,34.8l-30.2,15.3l-27.9,19.5l-30.2,18.6l-32.5,14.3l-34.8,25.2h-41.8H7791h-44.1l-41.8,9.3
	l-34.8,18l-23.2-22.6l-30.2-29.8l-23.2-30.6l-23.2-32.5l-18.6-25.5l-34.8-4.6l-60.4,4.6l-55.7,13.9l-37.2,22.3H7315l-30.2,12.6
	l-25.5,13.9l-60.4,2.3l-56.5,23.6l-41,11.2l-13.9,41.2l-9.3,21.5l-32.5,16.3h-18.6l-16.3-11.6l-23.2-26.2h-20.9h-20.9l-30.2-13.3
	l-37.2,2.3l-46.5,11l-32.5-15.7l-37.2-4.6l-30.2,20.3l-23.2,14.5l-27.9,7l-16.3,16.3H6632l-27.9,23.2l-41.8,13.9h-39.5l-25.5-13.9
	l-27.9-23.2l-11.6,13.9l-7-16.3l-20.9,7h-25.5l-24.8-4.6l-21.6,2.3l-32.5,34.8l-23.2,29.1l-16.3,30.7l-4.6,49.4l-16.3,27.9
	l-13.9,39.5l-27.9,30.2l-23.2,30.2l-30.2,20.9l-18.6,16.3l-18.6,13.9l-25.5,11.6l-34.8,11.6h-20.9V2697l-39.5,4.6h-46.5l-48.8,2.3
	l-25.5,11.6l-16.3,16.3L5854,2755l-23.2,18.5l-35.7,28l-15.4,23.2c0,0-9.3-41.8-18.6-41.8s-39.5-30.2-39.5-30.2l-25.5-23.2
	l-32.5-32.5l18.6-25.5l-88.3-62.7l-62.7,99.9l-292.6-192.8l-81.3-51.7l-41.8-24.8l-48.8-30.3l-22,9.3l-56.9,4.6l-20.9,10.5
	c0,0-18.6,5.9-27.9,0s-27.9-12.8-27.9-12.8l-40.6,12.8c0,0-31.4,5.5-66.2,12.6c-34.8,7.1-52.7,16-52.7,16l-35.6-16l-23.2-6.9
	l-13.9-5.7l-19.1-36l-0.3-39.5v-28.5l-13.1-41.2v-32.5v-31.2l-4.6-31.6L4631.4,2174.5z"/>
<polygon class="st0" points="4688,2478 4712.8,2490.4 4736,2497.3 4782.5,2497.3 4796.4,2490.4 4841.3,2478 4871,2464.2 
	4900.4,2464.2 4928,2478 4965.2,2478 4983.7,2462 5020.2,2462 5044.5,2462 5058.1,2450.4 5541.2,2773.4 5609.3,2668.3 
	5633.4,2697.8 5619.1,2710.4 5668.1,2759.8 5705.3,2803.1 5730.1,2824.7 5761,2880.5 5717.7,2880.5 5705.3,2896.6 5692.9,2912.9 
	5677.4,2933.2 5666.6,2939.4 5649.5,2967.3 5627.9,2985.8 5612.4,3001.3 5590.7,3001.3 5575.2,3013.7 5547.4,3034.9 5531.9,3063.3 
	5516.4,3103.5 5510.2,3138.4 5491.6,3165.5 5474.6,3171.6 5451.4,3184 5435.9,3199.5 5423.5,3227.4 5411.1,3241.3 5377,3211.9 
	5343,3199.5 5324.4,3171.6 5305.8,3138.4 5287.2,3138.4 5256.3,3138.4 5227.3,3138.4 5203.6,3162.4 5197.4,3138.4 5154.1,3177.8 
	5135.5,3193.3 5123.1,3227.4 5107.6,3258.4 5090.6,3264.5 5064.3,3276.9 5044.5,3289.3 5020.2,3312.5 4988.4,3315.6 4968.3,3329.6 
	4940.4,3355.9 4924.9,3304.2 4918.7,3267.6 4915.6,3249.1 4900.4,3230.5 4900.4,3193.3 4887.7,3168.5 4871,3138.4 4880,3106.6 
	4887.7,3078.7 4887.7,3057.1 4900.4,3010.6 4884.6,2979.6 4884.6,2945.6 4871,2912.9 4856.8,2874.4 4827,2824.7 4804.1,2804.7 
	4782.5,2773.4 4761.3,2738.1 4753.6,2692.4 4743.7,2657.6 4726.7,2620.4 4720.5,2592.5 4706.4,2568.4 "/>
<path class="st0" d="M2992.5,2583.3l23.2-14.9l11.6-10.7l34.8-27.9l27.9-20.9l16.3-11.6l23.2-19.3l16.3-27.6l16.3-17V2416h23.2
	l20.9-23.2l18.6-18.6l25.5-23.2l34.8-32.5l27.9-16.3l46.5-25.2l37.2-14.3l46.5-17.4l76.6-20.7l65-24.6l62.7-13.9l53.4-13.9
	l32.5-13.9l62.7-13.9l60.4-23.2l41.2-9.3l49.4-13.9l41.8-11.6l44.1-16.3l25.5-20.5l37.4-49.7l46.2-43.6l30.2-32.5l39.5-25.5
	l18.6-11.6h41.8h27.9h25.5h18.6h16.3h23.2l27.9,27.9l23.2,4.6l25.5,9.3l23.2,9.3l16.3,22.6l16.3,26.2l18.6,48.8l-30.2-9.3
	l-134.7,148.6l9.3,20.9l69.7,134.1l46.5,56.3l-139.4,76.2l2.3-16v-12.6l4.6-33.6l-4.6-36.6l-7-14.5l-27.9,14.5l-34.8,13.4l-37.2,9.3
	l-27.9,18.6l-16.3,29l-25.5,6l-18.6,24.8l-18.6,33.1H4117l-21-19.6l-14.2,19.3l-20.9,25.6l-16.3-2.3l-13.9,9.3l-18.6,23.2
	l-16.3,15.3l-7,26.5l7,16.3l-2.3,27.9l9.3,29.3l2.3,24.1l-2.3,26.7l11.6,17.4l11.6,18.6l-16.3,18.3l-11.6,11.9l-11.6,20.9
	l-13.9,18.5l-18.6-11.5l-30.2-16.3h-26.2l-18,11.6l-32.5,16.2l-20.9,11.7l-16.3,13.9l-27.9,13.9l-18.6,13.9l-23.2,18.4l-16.3,16.3
	H3710h-25.5H3659l-16.3-9.7l-16.3-18l-32.5,11.4l-25.5,16.3h-18.6c0,0-4.6,23.4-11.6,21.1s-32.5,0.2-32.5,0.2l-25.5,11.5h-22.4
	h-12.5H3429l-4.6,18.6l-9.3,16.3L3392,2992h-37.2l-18.6-25.5h-20.9l-20.9,13.9v37.2h-18.6l-27.9,17.3l-34.8,29.1l-27.9,18.6
	l-4.6-47.7l-9.3-45.2l-7-37.2l-4.6-39.6l-4.6-30l-9.3-25.5l-11.6-32.6l-9.3-18.5l-9.3-32.8l-18.6,11.9l-20.9,9.3l-32.5,11.6l-39.5-7
	l-11.6-9.3v-16.6v-22.9l-9.9-31.4v-17.4v-33.4v-15.4l12.2-27.9L2992.5,2583.3z"/>
<polygon class="st0" points="2325.9,1647.3 2325.9,1668.2 2325.9,1689.1 2325.9,1721.6 2325.9,1751.8 2316.6,1784.3 2316.6,1821.5 
	2316.6,1856.2 2325.9,1919 2337.5,1956.1 2349.2,1979.4 2360.8,2016.5 2360.8,2037.5 2374.7,2067.6 2386.3,2097.8 2386.3,2123.4 
	2397.9,2151.3 2411.9,2188.4 2423.5,2224.6 2438.2,2265.1 2451.4,2304.5 2451.4,2344 2467.6,2381.2 2467.6,2433.4 2476.9,2462 
	2476.9,2484.5 2476.9,2511.3 2476.9,2555.4 2488.5,2604.2 2488.5,2639 2500.1,2692.4 2500.1,2719.1 2500.1,2743.5 2509.4,2773.4 
	2509.4,2824.7 2495.5,2813.2 2493.2,2841.1 2490.8,2880.5 2488.5,2912.9 2490.8,2945.6 2488.5,2980.4 2486.2,3015.3 2488.5,3059.4 
	2493.2,3103.5 2500.1,3138.4 2509.4,3163.9 2509.4,3194.1 2530,3228.9 2530,3275.4 2530,3304.2 2539.6,3333.5 2539.6,3372.9 
	2548.9,3392.4 2548.9,3435.6 2560.5,3458.9 2530,3458.9 2507.1,3472.8 2483.9,3487 2449,3487 2428.1,3503 2446.7,3503 
	2465.3,3514.6 2483.9,3514.6 2518.7,3523.9 2530,3514.6 2546.6,3514.6 2560.5,3514.6 2581.4,3526.2 2607.6,3542.5 2625.6,3565.7 
	2653.4,3586.6 2669.7,3612.2 2692.9,3640 2718.5,3649.3 2737,3649.3 2750.6,3665.6 2771.9,3686.5 2798.7,3706.6 2811.4,3677.2 
	2823,3654 2832.3,3640 2845.2,3621.5 2857.8,3602.9 2876.4,3584.3 2892.6,3570.4 2908.9,3551.8 2927.5,3530.9 2939.1,3512.3 
	2939.1,3503 2939.1,3463.5 2939.1,3438 2925.2,3407 2918.2,3392.4 2920.5,3355.9 2920.5,3317.2 2939.1,3284.7 2939.1,3261.5 
	2939.1,3228.9 2939.1,3205.7 2920.5,3173.2 2908.9,3138.4 2899.6,3117.5 2892.6,3091.9 2888,3068.7 2881,3054.7 2881,3034.9 
	2890.3,2992 2890.3,2968.8 2899.6,2945.6 2901.9,2922.4 2908.9,2896.6 2908.9,2885.2 2913.5,2866.6 2922.8,2855 2929.8,2824.7 
	2939.1,2810.9 2939.1,2785.3 2939.1,2762.1 2939.1,2727.3 2939.1,2704 2939.1,2657.6 2948.4,2625.1 2948.4,2599.5 2948.4,2568.4 
	2948.4,2541.6 2948.4,2508.9 2958.6,2464.2 2958.6,2433.4 2958.6,2420.7 2946.1,2388.2 2934.5,2363.2 2920.5,2341.7 2892.6,2329.5 
	2855.5,2329.5 2811.4,2311.5 2798.7,2295.3 2774.2,2277.1 2760.3,2258.1 2750.6,2234.9 2723.1,2209.3 2702.2,2183.8 2692.9,2169.8 
	2681.3,2148.9 2665,2130.4 2640.3,2114.1 2625.6,2100.2 2607.6,2083.9 2599.7,2060.7 2583.7,2049.5 2579.1,2021.2 2562.8,1999.8 
	2530,1970.1 2511.7,1942.2 2497.8,1919 2488.5,1886.5 2481.5,1865.6 2469.9,1841.2 2451.4,1812.2 2438.2,1793.6 2411.9,1775 
	2397.9,1747.1 2384,1721.6 2365.4,1710 2360.8,1689.1 2339.9,1661.2 "/>
<path class="st0" d="M2381.7,3468.2l30.2-9.3l26.3-9.3l34.1-9.3h25.5l20.9-9.3l-11.6-24v-24.8l-11.6-26.3l2.3-12.7l-2.3-19.1
	l-2.3-20l-2.3-24.1v-11.6l-2.3-20.9l-7-23.2l-7-16.3l-9.3-25.5l-7-13.9v-16.3l-4.6-13.9l2.3-34.9l-11.6-32.5v-16.3v-19.8l-6.2-28.9
	v-11.6v-13.9v-27.9l6.2-23.2v-32.7v-23v-23.2l13.9-25.7v-30.1v-34.8v-40.7l-4.6-26.7l2.3-24.1l-11.6-47.9V2588l-6.2-46.3v-44.3V2478
	v-32v-27.6l-14.7-16.3l-11.6-9.3h-14h-39.5h-30.2h-11.6v30.2v16.2l-37.2-5.8h-75.7L2154,2446v32v19.3h-13.9l-23.2,20.9l-11.6,9.3
	l0,0v40.9l-13.5,24.5l-12,6.6l-34.8,9.3l-13.9,7l27.9,7l30.2,4.6l20.9,7l11.6,9.3l23.2,9.3l41.8,15.4l25.5,8.6l7,15.5l11.6,11.6
	l-4.6,15.1l-7,22.1l-4.6,18.6l-10.7,32.5l-10.3,41.8l-4.6,37.2l-4.6,31.9l19.5,37.8l-1,23.2l1,25.5H2161l-23.8-15.6l-4.1-19.2
	l-2.3-42c0,0,2.3-27.7,0-34.7s-2.3-37.2-2.3-37.2l-34.8-2.3h-32.5h-60.4l-46.5,7l-53.4,2.3l-37.2-2.3v-32.5c0,0,9.3-13.9,0-23.2
	s-11.6-16.6-11.6-16.6v-15.9l-9.3-18.6l-18.6,4.6l-27.9-9.3l-13.9,20.9l-20.9,18.3c0,0-9.3,14.2-16.3,16.6c-7,2.3-32.6-7-32.6-7
	l-16.2,20.9l0,0l-13.9,9.3l-23.2,11.5H1643l-16.3,14l-16,16.3l-0.5,20.9l11.9,27.2l18.6,27.3l-2.3,17.4l-26.6,20.9l-1.5,23.2
	l-16,23.2v19.6v15.2v18.6l-27.9,13.9l-18.6,23.2v11.6l-13.9,20.9l-16.3,16.2l-13.9,16.3v11.6v25.5l-16.3,18.6l-11.6,20.9v18.6
	l-11.6,16.3v21.8l-16.3,20v19.1l20.9,12.7l-4.6,19.4l4.6,17.1l9.3,27l-16.3,2.3l-13.9,18.6v27.9l0,0l-16.3,18.8l-20.9,18.4
	l-13.9,11.6l-18.6,9.3v23.2l-18.6,11.6v23.2v25.5v23.2c-11.6,18.6-20.9,30.2-20.9,30.2h13.9h20.9l25.5-13.9l11.6-2.3l25.5,2.3
	l30.2,13.9c0,0,34.8-2.3,34.8,9.3s32.5,0,32.5,0l18.6-4.6l16.3-16.3h20.9l9.3-25.5l12.9-18.6l26.6-4.6c0,0,4.6-23.2,11.6-20.9
	s32.5,2.3,32.5,2.3l30.1-9.3l23.3,4.6l30.2,9.3l27.9-2.3l18.9,4.6c0,0,11.3,9.3,11.3,0s20.9-20.9,20.9-20.9l20.9-4.6l23.2,9.3
	l18.6,18.6c0,0,23.2,7,30.2,7s30.2-9.3,30.2-9.3l27.9-13.9l37.2-11.6l32.5-11.6l32.5,11.6l23.2-4.6l16.3-25.5l2.3-25.5l2.3-23
	l9.3-9.5l11.6-18.6l-2.3-23.2l18.6-7l24.2-4.6l26.9-17l23.2-14.6l25.5-10.2l18.5,24.8l30.3,33.3l34.8,25.5L2381.7,3468.2z"/>
<path class="st0" d="M2072.8,2392.8v57.6h39.5v27.6l-19.7,6.5l-29,12.8l-11.6,23.2v21.1v13.8l-32.5,13l-37.2,21.8l-53.4,32.5v30.2
	h41.8h30.2l32.5,15.4h27.9l60.4,24.1h32.5l13.9,26.7v19.8l-7,34.5l7,21.2l-267.1,9.3v-30.5v-39.2v-15.1h-21v-12.7l-18.6-2.3
	l-23.2-2.3l-34.8,2.3l-25.5-11.6l-13.9,26.7l-20.9,15.1l-20.9,7l-25.5-7l-23.2-15.1l-11.6,26.7l-13.9,27.6l-23.2,16.6l-14.2,13.9
	l-29.9,20.8l-18.6,23.3l-9.3,13.9l32.5,67.4l-4.6,18.6l-7,18.6l-11.6,13.9l-9.3,16.3v20.9l-13.9,39.5l-11.6,25.5l-25.5,23.2
	l-16.3,16.3l-16.3,16.3l-11.6,20.9v30.2v16.3l-18.6,20.9l-11.6,27.9v20.9l-16.3,16.3v30.2v21.4l9.3,12.7l2.3,36.5l-11.6,22.3v20.9
	l-16.3,13.9l-16.3,16.3l-18.6,21.1H1339v13.7l-13.9,13.9v18.6l-4.6,18.6l-13.9,20.9l11.5,16.3l-11.5,13.9l11.5,9.3l-11.5,20.9
	l-18.7,20.9v23.7v11.1l-11.6,30.2v11.6l-13.9,10v22.5l-9.3,30.4l-13.6,18.4l-23.6,18.6v27.9l-16.3,9.3v18.6l-16.3,20.9v23.2
	l-23.2,32.5l-22.8,13.9l-28.3,23.2l-13.9,25.5l-13.9,11.6v27.9h-25.5h-30.2H1009l-16.3,13.9l-23.2,13.9l-13.9,9.3l-9.3,11.6h-39.5
	h-16.3l-25.5,25.5l-13.9,16.3l-13.9,23.2l-11.6,21.6l-53.4,24.8l0,0l-41.8,34.8l-23.2,27.9l-13.9,16.3l-16.3,18.6h-14l-16.3-23.2
	l-18.6-34.8l-20.9-37.2l-11.6-27.1l-15.4-24l-24.1-37.2l-16.3-23.2l25.5-27.9l14.8-25.5l24.7-18.6l11.6-18.6l11.6-16.3l7-11.6
	l-4.6-16.3l-4.6-13.9l-9.3-18.6l13.9-37.2l4.6-27.9v-44.1v-20.9l-4.6-20.4l-11.6-26.1l-23.2-31.8l-15.4-21.6l-28.7-25.5l-27.9-32.5
	l-25.5-18.6l-25-18.6l-12.2-18.6V3575v-30.2v-37.2l-11.6-34.8l-13.9-37.2l-13.7-28.6l-23.5-49.2v-29l-16.3-24.7h-23.2l-20.9-17.2
	l-25.5-13.9l-32.5-7l-13.9-18.6c0,0,2.3-13.9,0-23.2s0-25.5,0-25.5l-1-13.9v-11.6l10.3-18.6l-27.9-4.6l-27.9-11.6v-20.9l34.8-11.6
	l39.5-23.2l2.3-27.9l-39.5-9.3h-20.9l-16.3-10.6l-16.3-19.6l-11.6-11.6l-13.9-11.6l-16.3-37.2l-16.3-32.5l-11.6-25.8L124,2862
	l-11.6-37.3v-20.8l-13.9-18.6v-11.9v-27.6l13.9-26.7L124,2704l4.6-11.6l7-24.1l27.9,24.1l27.9,16.3l23.2,10.4h25.5l30.2,22.1
	l34.8,2.3c0,0,7-7,25.5-2.3c18.6,4.6,25.5-7,25.5-7l-4.6-41.8v-24.1l7-27l11.6-23.2l34.8-13.9l37.2-13.9l20.9-9.3l23.2-12.5
	l4.6-15.3l9.3-11.5L514,2523l13.9-13.9l11.6-11.6H565h27.9l32.5-19.3l13.9-13.8l4.6-30.8h20.9l25.5-12.7l20.9-11.6l13.9-16.3
	l23.2-29.6h35.5l13.3-9.9l20.9-9.3l16.3-14.5h23.2l23.2-11H897l18.6-18.6l18.6-22.9h18.6H983l27.9-9.7l25.5,9.7l39.5,20.5l25.5-20.5
	h18.6l12.8-9.7l36,9.7h32.5l16.3-9.7l23.2,27.9l27.9-18.2h20.9h16.3h13.9l18.6,25.2l9.3,27.3l9.3,14.5l9.3,19.2l9.3,29.6l11.6,18.6
	l23.2-4.6l25.5,26.7l16.3,17l23.2-17l16.3-15l16.3-9.3l13.9-16.3l20.9-16.3l7-13.4h18.6l13.9-19.2l13.9-14.5l15.2-13.3l15,47
	l13.9,29.6l25.5,16.3l32.5-4.6l34.8,4.6l37.2,2.3h42.2l41.5-4.6h30.2l33.6-4.6l45.4,4.6l44.1-4.6l39.5-9.3h26V2392.8z"/>
<path class="st0" d="M697.8,4363v15.6v32.5v27.9v44.1l-16.3,23.2l-23.2-9.3l-23.2,9.3l-16.3,37.2l-18.6,23.2v20.9l11.6,41.8l7,44.1
	l30.2,51.1l11.6,37.2l20.9,27.9l16.3,20.9l20.9,27.9l16.3,23.2l23.2,25.5l26.2,32.5l31.9,34.8v20.9l11.6,27.9l11.6,23.2l16.3,16.3
	l27.9,18.1h13.9l25.5-11.1l27.9-11.6l32.5-18.6l44.1-13.9l23.2-13.9l27.9-9.3l41.8-20.9l41.8-20.9l48.8-25.5l41.8-18.6l41.8-18.6
	l44.1-18.6l32.5-16.3l46.5-23.2l30.2-16.3l37.2-13.9l48.8-25.5l44.1-18.6l30.2-16.3l30.2-17.3l32.5-12.8l41.7-16.3l18.7-2.3h32.5
	l18.6,4.6l13.9,4.6l16.6-11.6l18.2-7l13.9-7l18.6-7l41.8-46.5v-25.5v-25.5l12.7-23.2l10.6-18.6v-25.5v-27.9V4432l-10.6-32.5l-8-36.5
	l8-40.1l10.6-46.5l13.9-9.3l37.2,9.3l32.5,2.3h34.8l27.9-2.3l23.2-9.3l20.9-7l0,0l16.3,7l18.6-2.3l13.9-2.3l20.9,9.3l14.9,16.3h15.3
	l16.3-9.3h16.3l16.3,13.9l16.3,11.6l32.5,18.6h27.9l30.2,11.6l37.2,7l26.3-2.3l38.7,4.6h27.9l13.9-46.5l11.3-72l9.6-102.2
	l11.6-106.8v-51.1v-60.4v-39.5h25.5l30.8,18.6l32.7,10.4l22.4,19.8l30.2,16.3l30.2,25.5l18.6,16.3l11.6-25.5v-30.2l18.6-22.1
	l18.6-29l18.6-16.3l13.9-25.5l-24.3-41.8l-22.2-25.5l-13.9-15.6l-9.3-14.6l-11.6-19.4l-20.9-13.1l-32.5-15.7l-18.6-12.1l-29.4-16.3
	l-2.7-25.5l-12-13.9l-25.9-16.3l-16-18.6h-20.9l-11.6-13.9h-32.5h-23.2H2456l-17.8-16.3l-26.3-9.3h-16.3l-9.3-11.6l-23.2-11.6
	l-37.2-25.3l-27.9-14.1v-13.9l-13.9-9.3l-23.2-16.3l-11.6,11.6l-16.3,11.6l-16.3-2.3l-13,16.3v16.5l-12.6,27.7l-7,25.5l-2.3,23.2
	l-2.3,18.6l-11.6,11.6l-34.8,7l-27.9,9.3l-41.8-11.6l-23.2,4.6l-23.2,7l-34.8,20.9l-20.9,2.3l-32.5,9.3l-25.5,2.3l-25.5-20.9
	l-16.3-11.6l-20.9,11.6l-13.9,7l-13.6,7l-21.3-7l-27.9-4.6l-18.6,4.6l-11.6-11.6l-21,4.6l-18.5-7l-20.9,9.3l-18.6,13.9l-13.9,18.6
	l-4.6,19.1h-20.9l-30.2,28.9h-27.9h-27.9l-16.3,17l-27.9,17l-9.3-21.6l-16.3-12.4l-30.2-10.8h-18.6l-13.9,10.8h-16.3h-13.9h-16.3
	c0,0,0-5.4-11.6,0s-11.6,5.4-11.6,5.4l-20.8,28.6v22.5v30.4l-11.7,5l-20.9,43.6l-16.3,4.6l-2.3,23.2l-14,13.9l-13.9,41.8l-11.6,25.5
	l-20.9,25.5l-13.9,20.9l-16.3,13.9l-13.9,11.6l-13.5,13.9l-3.9,27.9l3.9,25.5l-30.6,7h-30.2h-41.8l-27.9,16.3l-18.6,11.6l-7,11.6
	l-16.3,18.6H937l-30.2-4.6l-16.3,23.2l-13.9,16.3l-7,25.5l-13.9,16.3l-25.5,14.8l-11.6,1l-34.2,16.7l-23.9,18.6l-20.9,30.2
	c0,0-7-16.3-20.9,9.3S697.8,4363,697.8,4363z"/>
<polygon class="st0" points="913.8,5107.9 934.7,5098.6 955.6,5089.3 978.8,5070.7 1002.1,5060.9 1034.6,5045.2 1060.1,5028.9 
	1088,5017.3 1118.2,5005.7 1153,4991.8 1180.9,4982.5 1213.4,4961.6 1239,4947.6 1271.5,4931.4 1306.4,4919.8 1322.6,4908.2 
	1350.5,4891.9 1392.3,4875.6 1424.8,4859.4 1455,4847.8 1482.8,4831.5 1520,4812.9 1550.2,4799 1575.7,4787.4 1612.9,4773.5 
	1636.1,4761.8 1661.7,4752.5 1680.3,4738.6 1696.5,4738.6 1712.7,4722.4 1726.7,4722.4 1738.3,4731.6 1749.9,4736.3 1749.9,4722.4 
	1766.2,4738.6 1798.7,4734 1828.9,4722.4 1849.8,4722.4 1863.7,4703.8 1877.7,4703.8 1889.3,4687.5 1907.9,4668.9 1928.7,4650.4 
	1949.7,4629.5 1949.7,4613.2 1949.7,4587.6 1949.7,4573.7 1949.7,4557.5 1949.7,4543.5 1963.6,4527.3 1963.6,4511 1963.6,4494.7 
	1963.6,4480.8 1963.6,4466.9 1977.5,4455.3 1977.5,4439 1977.5,4420.4 1961.3,4401.8 1954.3,4387.9 1954.3,4363 1959,4346.1 
	1961.3,4322.9 1977.5,4322.9 1996.1,4322.9 2012.4,4313.6 2035.6,4313.6 2054.2,4313.6 2065.8,4322.9 2089,4313.6 2114.6,4313.6 
	2142.5,4304.3 2168.1,4313.6 2186.6,4322.9 2203.8,4343.8 2219.1,4334.5 2233,4322.9 2256.3,4346.1 2277.2,4350.7 2298,4363 
	2316.6,4376.3 2330.6,4363 2351.5,4376.3 2370.1,4376.3 2400.3,4376.3 2423.5,4380.9 2446.7,4385.6 2463,4383.3 2481.5,4383.3 
	2500.1,4385.6 2518.7,4390.2 2530,4385.6 2546.6,4376.3 2546.6,4363 2546.6,4339.1 2546.6,4322.9 2555.9,4295 2555.9,4264.8 
	2555.9,4247.2 2567.5,4225.3 2567.5,4200.5 2567.5,4181.2 2567.5,4158 2567.5,4139.4 2579.1,4125.5 2579.1,4099.9 2579.1,4069.7 
	2588.4,4041.8 2588.4,4018.6 2588.4,4002.4 2597.7,3976.8 2597.7,3953.6 2597.7,3932.7 2618.6,3932.7 2640.3,3953.6 2660.4,3967.5 
	2681.3,3976.8 2697.5,3988.4 2713.8,3997.7 2713.8,4016.3 2697.5,4032.5 2683.6,4048.8 2679,4062.7 2674.3,4076.7 2672,4088.3 
	2669.7,4102.2 2667.4,4123.1 2660.4,4151 2651.1,4178.9 2640.3,4209.1 2640.3,4232.3 2640.3,4260.2 2640.3,4292.7 2640.3,4322.9 
	2651.1,4336.8 2658.1,4363 2662.7,4383.3 2669.7,4401.8 2681.3,4413.5 2692.9,4434.4 2704.5,4446 2713.8,4462.2 2725.4,4483.1 
	2737,4504 2737,4531.9 2746.3,4545.8 2746.3,4569.1 2734.7,4592.3 2723.1,4622.5 2713.8,4636.4 2711.5,4657.3 2704.5,4694.5 
	2697.5,4715.4 2692.9,4738.6 2688.3,4768.8 2685.9,4794.4 2681.3,4824.5 2681.3,4859.4 2679,4891.9 2676.6,4908.2 2695.2,4924.4 
	2709.2,4947.6 2713.8,4977.8 2716.1,5005.7 2727.7,5024.3 2734.7,5040.5 2746.3,5060.9 2755.6,5089.3 2771.9,5124.2 2771.9,5152 
	2788.1,5152 2811.4,5133.5 2811.4,5152 2811.4,5170.6 2823.1,5191.5 2823.1,5212.4 2823.1,5227.1 2823.1,5256.5 2823.1,5277.5 
	2811.4,5305.3 2798.7,5328.5 2788.1,5354.1 2774.2,5370.4 2755.6,5393.6 2739.4,5405.2 2723.1,5419.1 2711.5,5435.4 2697.5,5460.9 
	2685.9,5481.8 2667.4,5505.1 2640.3,5537.6 2597.7,5604.9 2593,5632.8 2588.4,5656 2590.7,5688.5 2588.4,5716.4 2583.7,5742 
	2583.7,5765.2 2586.1,5783.8 2586.1,5816.3 2593,5839.5 2595.4,5879 2607.6,5911.5 2607.6,5941.7 2607.6,5983.5 2620.9,6018.4 
	2637.6,6048.5 2607.6,6062.5 2590.7,6076.4 2581.4,6108.9 2567.5,6108.9 2555.9,6120.5 2541.9,6132.2 2530,6132.2 2518.7,6150.7 
	2493.2,6160 2465.3,6171.6 2446.7,6171.6 2439.7,6148.4 2430.5,6132.2 2411.9,6120.5 2397.9,6115.9 2386.3,6104.3 2367.7,6092.7 
	2365.4,6067.1 2363.1,6039.3 2353.8,6011.4 2346.8,5985.8 2339.9,5969.6 2316.6,5976.5 2298,5985.8 2281.8,5976.5 2274.8,5962.6 
	2260.9,5958 2230.7,5969.6 2203.8,5967.3 2184.3,5981.2 2168.1,5997.5 2144.8,6009.1 2133.2,6018.4 2126.2,6046.2 2107.6,6057.8 
	2084.4,6053.2 2068.1,6076.4 2063.5,6104.3 2033.3,6102 2005.4,6108.9 1984.5,6122.9 1970.6,6129.8 1959,6153.1 1940.4,6160 
	1918.2,6157.7 1898.6,6171.6 1877.7,6171.6 1859.1,6171.6 1842.8,6171.6 1821.9,6171.6 1813,6197.2 1787.1,6197.2 1763.9,6197.2 
	1747.6,6197.2 1743,6176.3 1736,6157.7 1729,6134.5 1712.7,6122.9 1691.9,6132.2 1671,6122.9 1664,6102 1661.7,6085.7 1657,6064.8 
	1645.4,6039.3 1640.8,6023 1640.8,6006.7 1631.5,5992.8 1626.8,5974.2 1617.5,5955.6 1605.9,5930.1 1599,5906.9 1601.3,5872 
	1603.6,5837.2 1601.3,5800 1594.3,5779.1 1587.4,5742 1580.4,5707.1 1564.1,5679.3 1545.5,5649.1 1517.7,5628.2 1503.7,5604.9 
	1487.5,5572.4 1459.6,5560.8 1417.8,5537.6 1408.5,5565.5 1408.5,5604.9 1399.2,5625.8 1376,5635.1 1357.4,5651.4 1338.7,5665.3 
	1306.4,5646.7 1273.8,5639.8 1236.6,5623.5 1215.7,5628.2 1192.5,5642.1 1169.3,5644.4 1157.7,5637.5 1137.2,5628.2 1122.8,5611.9 
	1099.6,5598 1071.7,5581.7 1041.5,5563.1 999.7,5553.8 939.4,5549.2 892.9,5537.6 846.5,5537.6 827.9,5537.6 841.8,5509.7 
	860.4,5484.2 879,5458.6 892.9,5433.1 899.9,5419.1 911.5,5391.3 923.1,5375 930.1,5356.4 934.7,5344.8 946.3,5323.9 960.3,5305.3 
	967.2,5277.5 957.9,5242.6 932.4,5227.1 920.8,5207.8 909.2,5177.6 906.8,5126.5 "/>
<path class="st0" d="M3468.6,3828.2h-153.3v44.1l-58.1,22l-13.9-66.1h-369.3l-28.9,23.2l-3.6,20.9l-18.5,22l-11.7,19.8l-12.7,27.9
	v25.5l-19.9,20.9l-20.9,32.5l-20.9,23.2l-16.3,41.8l-11.6,27.9v32.5l-11.6,39.5l-13.9,30.2v31.2v22.2v37.2l9.3,34.8l18.6,41.8
	l16.3,18.6l23.2,41.8l18.6,30.2l9.3,30.2l7,27.9l-2.3,23.2l-2.3,34.8l-7,23.2l-13.9,23.2l-7,23.2v20.9l-9.3,20.9l-4.6,37.2l-7,37.2
	l-2.3,34.8l-7,39.5l-4.6,39.5l7,20.9l20.9,37.2l9.3,11.6l-2.3,18.6l7,18.6l16.3,30.2l22.2,38.3l15,24.4l31.5-9.3v27.9l14.9,30.2
	l-2.3,25.5l7,41.8l-2.3,37.2v39.5l-7,37.2l-10.3,30.2l-22.1,34.8l-24.4,23.2l-26.8,32.5l-25.5,13.9l-13.9,34.8l-18.6,37.2
	l-18.6,11.6l-11.6,30.2l-25.5,25.5l-17.8,16.3l-2.7,32.5v25.5v34.8v44.1l-9.7,39.5l9.7,37.2v37.2l2.7,51.1v48.8l15.4,44.1l23.2,41.8
	l-13.9,25.5c0,0-2.3,4.6-7,11.6c-4.6,7,2.3,18.6,2.3,18.6l7,32.5l11.6,41.8l11.6,34.8l11.6,30.2l20.9,20.9l16.3,41.8l-9.3,32.5
	c0,0-7,37.2-7,48.8c0,11.6-2.3,37.2-2.3,37.2v27.9l-2.3,18.6l2.3,16.3l7,25.5l11.6,25.5l13.9,30.2l16.3,39.5l16.3,23.2l2.3-32.5
	v-44.1l10.6-16.3l42.9-20.9l23.2-18.6l32.5-23.2l23.2-11.6l25.5-20.9l12.5-13.9l33.9-27.9h27.9l27.9-7l20.9-7l27.9-11.6l39.5-4.6
	l32.5-9.3l34.8-18.6l23.2-13.9l23.2-23.2l23.2-20.9l13.9-23.2l16.3-32.3l18.6-30.4l30.2-18.6l16.3-16.3l13.9-27.9l7-32.5l13.9-46.5
	V6023l20.9-9.3l20.9-18.6l37.2,7l23.2,13.9l27.9,11.6l30.2-23.2l27.9,16.3l16.2,9.3l30.2,2.3l39.5-13.9l27.9-9.3l25.5,20.9
	l20.9,32.5l37.2,18.6l20.9-9.3l27.9,2.3c0,0,9.3-2.3,23.2,2.3c13.9,4.6,36.5,7,36.5,7l30.8,2.3l25.5-7c0,0,9.3-2.3,20.9-4.6
	c11.6-2.3,30.2-11.6,30.2-11.6l20.9-25.5l25.5-34.8l25.5-18.6l18.8-4.6l32.3-4.6l41.8-16.3l51.1-13.9l53.4-11.6l32.5-2.3l39.5-4.6
	l53.4-9.3l13.9,4.6v-27.9l-11.6-25.5l-7-39.5l-2.3-23.2l-9.3-44.1l-2.3-44.1v-16.3l20.9-25.5l11.6-18.6l30.2-16.3l25.5-20.9
	l25.5-16.3l30.2-27.9l20.9-16.3l30.2-20.9l-16.3-9.3l-30.2-20.9l-20.9-27.9l-20.9-20.9l-16.3-20.9l-9.3-18.6v-13.9v-20.9l-7-27.9
	l-18.6-20.9l-23.2-20.9l-7-16.3l-13.9-11.6l-23.2-9.3l-30.2-30.2l-9.3-20.2v-30.9l2.3-23.2v-23.2v-25.5l-7-23.2l-2.3-11.6l-4.6-24.4
	l7-17.4l7-25.5l7-32.5l2.3-25.5l16.3-20.9l13.9-25.5l7-23.2l11.6-16.3l11.6-18.6l-7-13.9l-9.3-11.6l-7-32.5l-37.2-9.3l-23.2-9.3
	l-20.9-7l-18.6-18.6l-18.6-23.2l-20.9-20.9l-16.3-20.9l-11.6-32.5l-9.3-46.5l-7-30.2l-2.3-30.2l-7-25.5l-7-13.9l-62.3-37.2
	l-37.6-30.2l-20.9-7l-2.3-25.5l7-25.5l-2.3-24.9l-2.3-23.9l-4.6-16.2l-2.3-37.2l-11.6-37.6l-11.6-15.9l-16.3-16.3l-18.6-15.5
	l-18.6-30.9l-23.2-18.6l-54-9.3l-22.6,9.3l-20.9-4.6l-25.5-2.3l-23.2-13.9l-33.7-11.6h-13.1l-34.5-4.6l-16.3,18.6l-23.2,20.9h-18.6
	l-23.2-7l-18.6-7l-16.3,7l-16.2-4.6l-20.9-9.3L3543,4158l-16.3,9.3l-13.9-9.3h-18.6l-18.6-2.3l-17.7,2.3l-38,9.3l-37.2,9.3l-37.2,7
	l-7-11.6l-9.3-20.9v-32.5l9.3-20.9l-4.6-25.5l18.6-32.5l20.9-27.9l18.6-37.2l16.3-27.9l16.3-13.9l2.3-38.4l4.6-19.7V3863l26.4-13.9
	L3468.6,3828.2z"/>
<path class="st0" d="M2982.6,2840.3l19.2,15.5h24.8l24.8-7.7l31-7.7l15.5,15.5v21.7l15.5,35.4v54.4l15.5,27.9v39.8v16l12.4,31.7
	v36.4l21.7,19.4l24.8,17.8h24.8l12.4-17.8v-28.7l31-27.1l24.8-13.1l31-6.2l-4.5-26.3l20-17.1l37.2,27.9l31-12.6l27.9-0.3l12.4-21.2
	l22.5-15.5l23.9,15.5l18.6-15.5l18.6-21.7l43.4-9.3l39.9-3.1v-18.6l19,12.4h24.8l24.8-3.1l27.9,9.3l21.7,34.1l15.5-21.7l22.9-12.4
	l13.1-24.8l16.7-26.5l27.9-16.3l21.7-16.1l31-15.5l28.8-12.4l20.8,6.2l46.5,12.4l27.9-6.2l24.8-24.8l15.5-15.6v-18.5h24.8v18.5v31.1
	l21.7,18.6v22.2v16.3v26.5v24.8l-21.7,31l-37.2,39.8l-24.8,0.3l-15.5,12.6l-6.2,21.7l15.5,40.3l12.4,28.7v17.8l-15.5,27.9
	l-34.1,15.5l-18.6,21.7l-12.4,27.9l-23.8,31v24.1v25.4l-13.3,26.3l-15.5,20.1v16.4l28.8,41.2l14.6,38.4l6.2,27.9l12.4,34.1
	l18.6,34.1l27.9,18.6h21.7l9.3,34.1h37.2l15.5,27.9l3.1,29l-12.4,29L4033,3726v14.6l18.6,52.9c12.4,25.3,27.9,47,27.9,47l-18.6,27.9
	l-3.1,25.9l-12.4,38.4l-15.5,37.9l-3.1,31l-6.2,21.7v46.5v49.5l-3.1,43.4l-31-43.4l-34.1-18.6h-31h-37.2l-18.6,3.1l-34.1-15.5
	l-31-6.2l-42.1-3.1l-35.3-6.2l-15.5-3.1l-21.7,24.8l-18.6,6.2h-21.7l-18.6-6.2l-19.4,3.1l-23.9-15.5l-27.9,6.2l-25.1,27.9l-30.7-3.1
	h-18.6l-23.9,3.1l-25.6,3.1l-21.7,12.4h-24.8c0,0,0,12.4,0-15.5c0-27.9,0-27.9,0-27.9l0,0l6.2-31l12.4-31l18.6-18.6l18.6-24.8
	l16.4-21.7l14.6-12.4l9.3-16.3l6.2-24l12.4-31l12.4-21.7l3.1-27.9l15.2-29.7l-18.3-5l-27.9-14.9h-55.7h-43.4l-58.8-3.1l-481.8,3.1
	l-3.6-18.6l-18.5-19.4l22.1-17.7l14.2-16.3l9.3-29l12.4-13.5c0,0,0-12.4,9.3-18.6s21.7-27.9,21.7-27.9l27.9-31l42.7-34.1l0-27.9
	v-24.8l13-15.5l-13-27.9v-22.9l0-26.6h-24v-51.1l24-29.4v-31.3v-27.6l0-37.2l0-40.3l-24-51.8v-28.7l-15.6-27.1l-15.5-28.6l12.4-55.7
	v-37.2l6.2-48.2l12.5-35.4L2982.6,2840.3z"/>
<path class="st0" d="M4509.9,2081.6l-24.8,21.7l-27.9,40.3l-15.5,15.5l-18.6,21.7l21.7,31l21.7,33.7l18.6,31.7l24.8,52.4l24.8,33.7
	l41.8,29.6l-41.8,17l-34.8,29.6l-48.8,22.6l-55.7,22.7l-43.4,30.5l-35.7-9l-23.1-21.4l15.5-22.7l9.3-46l-24.8,3.1l-31,14.3
	l-21.7,28.6l-24.8,16l-37.2,37.1l-18.6,26.5h-42.9l-37.6,13.8l-24.8,13l-21.7,24.1l12.4,37.2l6.2,24.8l-6.2,37.9l21.7,26.7
	l12.4,22.1l16.5,32.2l21.1,32.8v18.5v18.7l27.4,31l-27.4,38.5l15,51.3l-15,27.9l-21.1,42.9l-35.1,25.3l-27.9,22.4l18.6,39.5
	l6.2,16.3l-9.3,54.9l-31,27.9l-31,15.5l-18.6,31l-27.9,36.5v39.1v35.9l-15.5,27.9l12.4,26.6l24.8,35.3l18.6,43.4l18.6,24.8h24.8
	l15.5,21.7l15.5,31l24.8,15.5h37.6v31v41.4l-9.7,29l-27.9,34l16.5,22.5l21.1,30.4v34.6v37.2l-21.1,29v38.4l-16.5,34.8L4064,4014
	l15.5,27.9v31v31l-21.7,58.8l3.1,21.7l6.2,16.2l12.4,30.2l16.5,34.1v58.1v40.1v53.5l39.2,18.6l34.1,24.8l37.2,15.5l21.7,24.8
	l6.2,24.8l3.1,24.8l13.2,27.9v27.9l14.7,40.3l15.5,37.2l21.7,34.1l34.1,24.8l34.1,15.5h31l27.9,43.4l9.3,24.8l9.3,31l-6.2,34.1
	l-21.7,21.7l-18.6,31l-9.3,31l-12.4,46.5l-12.4,40.5v28.4l12.4,36.4v37.2l3.1,46.5l27.9,40.3l43.4,34.1l34.1,31l18.6,31l3.1,46.5
	l24.8,27.9l12.4,24.8l29.4,34.1l31.8,27.9h23.1h28.2h28.4h32.5h40.8h42.8h40.3l26.1-21.7l30-24.8l43.1,3.1h21.7h24.8l30.3-3.1
	l24.3,3.1l53.8-31l24.8-27.9l46.5-27.9l27.9,24.8l27.1,27.9l2.8,24.8l41.3,24.8l31,27.9v-34.1l34.1-21.7l21.7-15.5l37.2-49.5
	l21.7-27.9c0,0,31-18.6,40.3-24.8c9.3-6.2,31-15.5,31-15.5l55.7-9.3l18.6-9.3l18.6-24.8l31-24.8l43.4-20.9v-22.5l18.6-15.5
	l18.6-12.4l15.5-24.8v-15.5l34.1,6.2l21.6,9.3l18.6-6.2l40.3-27.9l43.4-3.1h34.1l34.1-27.1l31-24.4l24.8-22.8l15.5-49.5v-40.3v-37.2
	l-6.2-39.4l-24.8-3.9l9.3-24.8l21.7-27.9v-21.7v-27.9l-15.5-24.8l15.5-24.8l15.5-15.5l18.6-24.8v-31l18.6-24.8l12.4-34.1v-24.8
	v-21.7l37.2-18.6l18.6-31v-34.1l21.7-9.3l24.8-31l21.7-15.5h24.8l40.3-3.1l43.4,3.1l27.9,21.7l40,18.6l11.6,12.4v-31l19.6-27.9
	l24.8-21.7v-34.1v-19.3l15.5-24l21.7-21.7l24.8-29v-26.7l18.6-21l40.3-37.9l34.1-12.4l37.2-15.5l15.5-12.4l27.9-37.2l34.1,9.3
	l21.7,12.4l27.9-6.2l37.2,6.2l15.5-18.6l-18.6-27.9l-12.4-27.9l-6.2-27.9l12.4-18.6l24.8-21.7v-15.5v-16.3v-38.4v-32.1v-24.8
	l34.1,3.1l27.9-12.4l15.5-29.7l15.5-23l15.5-21.7l15.5-13.2v-34v-29v-35.2v-31c0,0-15.5-18.6-15.5-27.9s15.5-31,15.5-31v-40.3v-27.9
	v-34.1V3407v-34.1l-18.6-29.7l18.6-23v-25.1l-18.6-21.4l-27.9-12.4l-21.7-9.3l-18.6-3.1l-9.3-18.6l-6.2-27.9l-9.3-27.9l6.2-15.5
	l12.4-20.9l3.1-31.8l-3.1-24v-22.4l-18.6-25.3v-18.1v-34.1v-34.1l12.4-35.8l9.3-29.3l21.7-40.3l6.2-18.7l6.2-34l21.7-40.3v-31.4
	v-26.7l21.7-24.1l12.4-26.2l31-31l27.9-55.7l24.8-13.8l31-23.4l21.7-20.9l27.9-12.6l31.9-6.7l-13.4-16l-24.8-28.6l-9.3-40.6
	l-21.7,20.1l-31,3.1l-21.7-9.3l-15.5-13.9l-21.7-17l-18.6-12.6h-21.7h-31h-18.6h-27.9l-21.7,15.7l-15.5-15.7h-21.7h-18.6l-12.4,29.6
	h-15.5h-18.6h-21.7l-27.9,20.1l-18.6,6.2l-24.8,14.3h-18.6l-21.7,6l-27.9,11l-37.2,11.6l-21.7-16l-24.8,16l-38.6-22.9l-31-12.6
	l-4.7,6.9l-16.5-23.6l-11.6,36.2l-27.6,18.2l-3.1,33.1l-6.2,14.7l-21.7,29.6l-9.3,41.7l-24.8,34.1l-15.5,24.8l-27.9,26.2l-27.9,24.1
	l-15.5,26.7l-31,12.8l-27.9,6.2l-37.2,15.5l-31,19.8h-18.6l-24.8-22.9l-31-3.1h-27.9l-21.7,3.1l-18.6,9.3l-18.6,13.6l-18.6,17.3
	l-9.3,15.5l-12.4,18.5l-34.1,18.7v31l-6.2,28.8l-24.9,20.8l-34,3.1l-15.5-14.1l-12.4,26.5l-21.7,15.5l-15.5,21.7v15.5l-15.5,15.5
	l-21.7,27.4l-21.7,0.3h-24.8l-15.5,18.8l-18.6,28.6l-18.6,33.3l-9.3,22.5l-3.1,20.9l-12.4,15.5l-15,15.5l-19.1,18.6l-24.8,18.6
	l-21.7,34.1l-21.7,15.5l-27.9,3.1l-24.8-15.5l-18.6-6.2l-31-6.2l-15.5-18.6l-18.6-15.5c0,0,0-6.2-3.1-15.5
	c-3.1-9.3-12.4-24.8-12.4-24.8l-31,3.1l-22.8,18.6l-17.5,24.8l-15.5-15.5l-15.5,3.1l-6.2,15.5l-6.2,37.2l-21.7,30.7h-21.7l-27.9,9
	l-24.8,25.4l-12.4,26.3h-25.7h-33.1l-18.6,23.2l-24.8,27.9h-21.7l-6.2,26.6l-27.6-57.6l-29.4-80.8l-0.6-49.2l-19.9-37.2l-3.1-24.8
	L4827,3150v-37.2v-30.2l23.6-31.7v-40.3l-23.6-27.9V2958v-45.1l-19.8-38.5l-27.9-24.8l-23-24.9l-4.9-18.5l-21.6-32.8l-23.4-35.3
	V2704l-18.4-92.9l-28.4-69.5l-13.4-44.3l-14.8-46.9l-3.5-17l-3.5-40.6v-29.6l7-33.7l-23.1-40.4v-64.5V2190l-23.5-40.3l-22.2-37.2
	L4509.9,2081.6z"/>
<g>
	<path class="st2" d="M1519.2,1319.9v13.3h-129.4v-13.3h56.4v-17.4h-39.7V1254h16.3v35.3h81.8v13.2h-42v17.4H1519.2z M1404.5,1345.9
		h98.6v48.5h-16.3v-35.3h-82.3L1404.5,1345.9L1404.5,1345.9z"/>
	<path class="st2" d="M1567.3,1327.8c-21.7,0-38-14-38-34.2s16.3-34.1,38-34.1c21.8,0,38.2,13.9,38.2,34.1
		C1605.5,1313.7,1589.2,1327.8,1567.3,1327.8z M1567.3,1314c12.8,0,22.2-7.9,22.2-20.4c0-12.4-9.4-20.4-22.2-20.4
		c-12.7,0-22,8-22,20.4C1545.4,1306.1,1554.7,1314,1567.3,1314z M1640.9,1366.9c0,17.2-18.2,27.4-47.6,27.4
		c-29.3,0-47.6-10.3-47.6-27.4c0-17.3,18.4-27.6,47.6-27.6C1622.7,1339.3,1640.9,1349.7,1640.9,1366.9z M1624.7,1366.9
		c0-9.5-11.5-14.5-31.6-14.5s-31.6,5-31.6,14.5c0,9.4,11.5,14.4,31.6,14.4S1624.7,1376.3,1624.7,1366.9z M1639.3,1284.3v17.4h19.8
		v13.4h-19.8v20.3H1623v-84.2h16.3v19.7h19.8v13.4L1639.3,1284.3L1639.3,1284.3z"/>
	<path class="st2" d="M1794.8,1320.4v13.3h-129.2v-13.3h56.4v-14.3h-40.4v-48.5h97.4v13h-81.2v22.3h82.2v13.2h-41.6v14.3H1794.8z
		 M1779,1368.4c0,16.7-18.5,26.2-49.3,26.2c-30.6,0-49.3-9.5-49.3-26.2c0-16.4,18.7-25.9,49.3-25.9
		C1760.4,1342.3,1779,1351.8,1779,1368.4z M1762.4,1368.4c0-8.8-11.9-13.4-32.8-13.4s-32.6,4.8-32.6,13.4c0,8.9,11.8,13.4,32.6,13.4
		S1762.4,1377.3,1762.4,1368.4z"/>
</g>
<g>
	<path class="st2" d="M4520.3,1292.8c0,22.2,14,47.5,35.8,57.8l-9,12.8c-16-7.6-28.2-23.4-34.7-41.5c-6.4,19.9-19,37.1-35.5,45.1
		l-9.4-13c21.8-10.4,36.5-37.6,36.5-61.3V1279h-31.2v-13.4h77.8v13.4h-30.2L4520.3,1292.8L4520.3,1292.8z M4603.4,1321.1H4581v73.2
		h-16.3v-143h16.3v56.4h22.3v13.4H4603.4z"/>
	<path class="st2" d="M4737.6,1310.3v13.3H4608v-13.3h93.5c3.6-16,4-28.1,4-38.8h-81.1v-13.3h97.1v11c0,11.3,0,23.9-3.6,41
		L4737.6,1310.3L4737.6,1310.3z M4623.8,1340.9h97.7v51.6h-97.7V1340.9z M4639.7,1379.5h65.8v-25.7h-65.8V1379.5z"/>
	<path class="st2" d="M4875.3,1320.4v13.3H4746v-13.3h56.4v-14.3H4762v-48.5h97.4v13h-81.2v22.3h82.2v13.2h-41.6v14.3H4875.3z
		 M4859.4,1368.4c0,16.7-18.5,26.2-49.3,26.2c-30.6,0-49.3-9.5-49.3-26.2c0-16.4,18.7-25.9,49.3-25.9
		C4841,1342.3,4859.4,1351.8,4859.4,1368.4z M4843,1368.4c0-8.8-11.9-13.4-32.8-13.4s-32.6,4.8-32.6,13.4c0,8.9,11.8,13.4,32.6,13.4
		C4831.1,1381.8,4843,1377.3,4843,1368.4z"/>
</g>
<g>
	<path class="st2" d="M1040.9,1944.6c0,41.5-17.8,78.2-64.4,101.9l-9-12.5c35-17.9,53.9-43.1,57.2-76.1h-50v-13.3H1040.9z
		 M1100,1999.6h-21.7v72.8H1062v-143h16.3v56.5h21.7V1999.6z"/>
	<path class="st2" d="M1234.8,1995.1v13.3h-129.4v-13.3H1234.8z M1219,2046c0,16.7-18.5,26.3-49.3,26.3c-30.6,0-49.3-9.7-49.3-26.3
		c0-16.8,18.7-26.4,49.3-26.4C1200.5,2019.5,1219,2029.2,1219,2046z M1220,1980.7h-97.7v-48.5h16.3v35.3h81.4L1220,1980.7
		L1220,1980.7z M1202.5,2046c0-9-11.9-13.7-32.8-13.7s-32.6,4.6-32.6,13.7c0,8.8,11.8,13.7,32.6,13.7S1202.5,2054.6,1202.5,2046z"/>
	<path class="st2" d="M1372.7,1998.6v13.3h-129.2v-13.3h56.4v-14.3h-40.4v-48.5h97.4v13h-81.2v22.3h82.2v13.2h-41.6v14.3H1372.7z
		 M1356.8,2046.6c0,16.7-18.5,26.2-49.3,26.2c-30.6,0-49.3-9.5-49.3-26.2c0-16.4,18.7-25.9,49.3-25.9
		C1338.2,2020.7,1356.8,2030.2,1356.8,2046.6z M1340.3,2046.6c0-8.8-11.9-13.4-32.8-13.4s-32.6,4.8-32.6,13.4
		c0,8.9,11.8,13.4,32.6,13.4S1340.3,2055.5,1340.3,2046.6z"/>
</g>
<g>
	<path class="st2" d="M6286,1835.8v13.2h-129.4v-13.2h56.4v-19.4h16.3v19.4H6286z M6272.5,1824.3c-22.9-3.6-42.1-14.3-51.4-29.6
		c-9,15.2-27.8,26.2-51.1,29.6l-6-12.8c28.3-3.8,49-19.8,49-37.6v-5.4h16.8v5.4c0,17.9,20.3,33.7,49,37.6L6272.5,1824.3z
		 M6270.4,1884.2c0,16-18.4,25.1-49.3,25.1c-30.7,0-49.3-9-49.3-25.1s18.5-25.1,49.3-25.1
		C6252.1,1859.1,6270.4,1868.2,6270.4,1884.2z M6253.9,1884.2c0-8.3-11.8-12.7-32.8-12.7s-32.6,4.4-32.6,12.7s11.5,12.5,32.6,12.5
		S6253.9,1892.3,6253.9,1884.2z"/>
	<path class="st2" d="M6370.6,1849.1c-15.8-5.5-27.4-16.9-33.7-30.8c-6.1,15.7-18,27.8-34.8,33.8l-8.9-12.7
		c22.9-7.8,35.2-27.1,35.2-48v-16.7h16.4v16.8c0,19,12.4,37.1,34.1,44.5L6370.6,1849.1z M6332.4,1893.2h79.7v13.3h-96v-45.1h16.3
		V1893.2z M6426.6,1808.9v13.4h-20.3v49.1H6390v-105.5h16.3v43H6426.6z"/>
	<path class="st2" d="M6428.8,1883.1l8.9-11.8c6.8,7,15.5,12.8,27.6,12.8c13.2,0,22.2-7.3,22.2-19.3c0-13-8.3-21.4-34.6-21.4V1830
		c22.9,0,30.6-8.8,30.6-20.4c0-10.3-6.8-16.8-17.9-16.9c-9,0.1-16.7,4.6-23.3,11l-9.5-11.4c9.2-8.3,19.9-14,33.5-14
		c20.9,0,35.6,10.8,35.6,30.1c0,13.4-7.8,22.8-20.2,27.4v0.8c13.4,3.4,24.1,13.4,24.1,29.2c0,21.1-17.6,33.5-39,33.5
		C6448.4,1899,6436.5,1891.7,6428.8,1883.1z"/>
	<path class="st2" d="M6644.2,1835.2v13.3H6515v-13.3h56.4v-14.3H6531v-48.5h97.4v13h-81.2v22.3h82.2v13.2h-41.6v14.3H6644.2z
		 M6628.4,1883.2c0,16.7-18.5,26.2-49.3,26.2c-30.6,0-49.3-9.5-49.3-26.2c0-16.4,18.7-25.9,49.3-25.9
		C6609.8,1857.2,6628.4,1866.8,6628.4,1883.2z M6612,1883.2c0-8.8-11.9-13.4-32.8-13.4s-32.6,4.8-32.6,13.4
		c0,8.9,11.8,13.4,32.6,13.4S6612,1892.1,6612,1883.2z"/>
</g>
<g>
	<path class="st2" d="M3459.2,2530.7c-16.3-6-28.1-17.8-34.2-32.6c-6.5,16-18.4,29-35.2,35.3l-8.4-13.2c22.4-8.3,35-28.7,35-49.6
		v-14.2h16.7v14.3c0,20.3,12.5,39.5,34.6,47L3459.2,2530.7z M3502.9,2575.4v13.3h-97.6v-45.5h16.4v32.2H3502.9L3502.9,2575.4z
		 M3498.8,2553.1h-16.3v-104.5h16.3V2553.1z"/>
	<path class="st2" d="M3647.9,2515.3v13.3h-129.1v-13.3h50.6v-27.8h16.4v27.8H3647.9z M3532.5,2543h98.9v48.6h-16.3V2556h-82.6
		L3532.5,2543L3532.5,2543z M3612.2,2505c3.1-14.9,3.5-25.9,3.5-36h-81.8v-13.2h98.2v10.6c0,10.8,0,23.4-3.6,40L3612.2,2505z"/>
	<path class="st2" d="M3655.4,2568.7c34.3-30.4,52.1-53,52.1-72.2c0-12.7-6.8-21.4-19.8-21.4c-9.2,0-16.8,5.9-22.9,13l-10.3-10.1
		c10-10.8,20.3-17.4,35.5-17.4c21.4,0,35.2,13.9,35.2,35c0,22.4-17.9,45.7-42.6,69.4c6-0.6,13.3-1.1,19-1.1h29.2v15.5h-75.2v-10.7
		H3655.4z"/>
	<path class="st2" d="M3868.4,2517.5v13.3H3739v-13.3h56.4v-14.3H3755v-48.5h97.4v13h-81.2v22.3h82.2v13.2h-41.6v14.3H3868.4
		L3868.4,2517.5z M3852.5,2565.5c0,16.7-18.5,26.2-49.3,26.2c-30.6,0-49.3-9.5-49.3-26.2c0-16.4,18.7-25.9,49.3-25.9
		C3833.9,2539.5,3852.5,2549,3852.5,2565.5z M3836,2565.5c0-8.8-11.9-13.4-32.8-13.4c-20.9,0-32.6,4.8-32.6,13.4
		c0,8.9,11.8,13.4,32.6,13.4C3824.1,2578.9,3836,2574.3,3836,2565.5z"/>
</g>
<g>
	<path class="st2" d="M5084.9,2888.9v13.2h-129.4v-13.2h56.4v-19.4h16.3v19.4H5084.9z M5071.3,2877.4c-22.9-3.6-42.1-14.3-51.4-29.6
		c-9,15.2-27.8,26.2-51.1,29.6l-6-12.8c28.3-3.8,49-19.8,49-37.6v-5.4h16.8v5.4c0,17.9,20.3,33.7,49,37.6L5071.3,2877.4z
		 M5069.2,2937.2c0,16-18.4,25.1-49.3,25.1c-30.7,0-49.3-9-49.3-25.1s18.5-25.1,49.3-25.1
		C5050.9,2912.2,5069.2,2921.2,5069.2,2937.2z M5052.8,2937.2c0-8.3-11.8-12.7-32.8-12.7s-32.6,4.4-32.6,12.7s11.5,12.5,32.6,12.5
		S5052.8,2945.4,5052.8,2937.2z"/>
	<path class="st2" d="M5169.5,2902.2c-15.8-5.5-27.4-16.9-33.7-30.8c-6.1,15.7-18,27.8-34.8,33.8l-8.9-12.7
		c22.9-7.8,35.2-27.1,35.2-48v-16.7h16.4v16.8c0,19,12.4,37.1,34.1,44.5L5169.5,2902.2z M5131.1,2946.2h79.7v13.3h-96v-45.1h16.3
		V2946.2z M5225.5,2862v13.4h-20.3v49.1h-16.3V2819h16.3v43H5225.5z"/>
	<path class="st2" d="M5230.1,2939.4c34.3-30.4,52.1-53,52.1-72.2c0-12.7-6.8-21.4-19.8-21.4c-9.2,0-16.8,5.9-22.9,13l-10.3-10.1
		c10-10.8,20.3-17.4,35.5-17.4c21.4,0,35.2,13.9,35.2,35c0,22.4-17.9,45.7-42.6,69.4c6-0.6,13.3-1.1,19-1.1h29.2v15.5h-75.2v-10.7
		H5230.1z"/>
	<path class="st2" d="M5443,2888.3v13.3h-129.2v-13.3h56.4V2874h-40.4v-48.5h97.4v13H5346v22.3h82.2v13.2h-41.6v14.3H5443
		L5443,2888.3z M5427.2,2936.3c0,16.7-18.5,26.2-49.3,26.2c-30.6,0-49.3-9.5-49.3-26.2c0-16.4,18.7-25.9,49.3-25.9
		C5408.7,2910.2,5427.2,2919.9,5427.2,2936.3z M5410.7,2936.3c0-8.8-11.9-13.4-32.8-13.4s-32.6,4.8-32.6,13.4
		c0,8.9,11.8,13.4,32.6,13.4C5398.9,2949.7,5410.7,2945.2,5410.7,2936.3z"/>
</g>
<g>
	<path class="st2" d="M5112.9,4102.7v13.2h-129.5v-13.2h56.4v-19.4h16.3v19.4H5112.9z M5099.2,4091.1c-22.9-3.6-42.1-14.3-51.4-29.6
		c-9,15.2-27.8,26.2-51.1,29.6l-6-12.8c28.3-3.8,49-19.8,49-37.6v-5.4h16.8v5.4c0,17.9,20.3,33.7,49,37.6L5099.2,4091.1z
		 M5097.1,4151c0,16-18.4,25.1-49.3,25.1c-30.7,0-49.3-9-49.3-25.1s18.5-25.1,49.3-25.1C5078.8,4126,5097.1,4135,5097.1,4151z
		 M5080.7,4151c0-8.3-11.8-12.7-32.8-12.7s-32.6,4.4-32.6,12.7s11.5,12.5,32.6,12.5S5080.7,4159.2,5080.7,4151z"/>
	<path class="st2" d="M5197.4,4115.9c-15.8-5.5-27.4-16.9-33.7-30.8c-6.1,15.7-18,27.8-34.8,33.8l-8.9-12.7
		c22.9-7.8,35.2-27.1,35.2-48v-16.7h16.4v16.8c0,19,12.4,37.1,34.1,44.5L5197.4,4115.9z M5159,4160h79.7v13.3h-96v-45.1h16.3V4160z
		 M5253.4,4075.7v13.4h-20.3v49.1h-16.3v-105.5h16.3v43L5253.4,4075.7L5253.4,4075.7z"/>
	<path class="st2" d="M5264.8,4148.8h25.6v-81.1h-20.9v-11.5c10.9-2,18.7-4.8,25.3-8.9h13.8v101.5h22.8v15h-66.5L5264.8,4148.8
		L5264.8,4148.8z"/>
	<path class="st2" d="M5470.9,4102v13.3h-129.2V4102h56.4v-14.3h-40.4v-48.5h97.4v13h-81.2v22.3h82.2v13.2h-41.6v14.3H5470.9
		L5470.9,4102z M5455.1,4150c0,16.7-18.5,26.2-49.3,26.2c-30.6,0-49.3-9.5-49.3-26.2c0-16.4,18.7-25.9,49.3-25.9
		C5436.6,4124.1,5455.1,4133.6,5455.1,4150z M5438.6,4150c0-8.8-11.9-13.4-32.8-13.4s-32.6,4.8-32.6,13.4c0,8.9,11.8,13.4,32.6,13.4
		C5426.8,4163.6,5438.6,4158.9,5438.6,4150z"/>
</g>
<g>
	<path class="st2" d="M2381.6,2939.3c25.7,0,61.3-0.1,92-4.8l1.1,11.9c-31.6,6-65.8,6.4-91.1,6.4L2381.6,2939.3z M2466.1,2884.3
		c0,20.3-16.7,34.3-39,34.3s-38.8-14-38.8-34.3s16.4-34.3,38.8-34.3C2449.4,2849.8,2466.1,2864,2466.1,2884.3z M2404.3,2884.3
		c0,12.4,9.7,20.4,22.8,20.4c13.3,0,22.9-8,22.9-20.4c0-12.5-9.7-20.4-22.9-20.4C2414.1,2863.8,2404.3,2871.7,2404.3,2884.3z
		 M2498.8,2839.8v143.4h-16.4v-143.4H2498.8z"/>
	<path class="st2" d="M2595.8,2920.5c-15.8-5.5-27.2-16.8-33.2-30.6c-6.4,15.7-18.4,28.3-35.3,34.3l-8.4-13
		c22.2-7.9,35-26.9,35-46.6v-2h-30.4v-13.2h76.6v13.2h-29.8v1.9c0,17.9,12.2,35.6,33.6,43.1L2595.8,2920.5z M2638,2956
		c0,17.2-18.4,27.1-48.1,27.1c-29.9,0-48.4-10-48.4-27.1c0-16.9,18.4-27.1,48.4-27.1C2619.6,2928.9,2638,2939,2638,2956z
		 M2621.6,2956c0-9.4-11.8-14.4-31.8-14.4c-20.4,0-32,5-32,14.4s11.5,14.4,32,14.4C2609.9,2970.4,2621.6,2965.3,2621.6,2956z
		 M2621.1,2875.9v-36h16.3v85.2h-16.3v-36h-25.3v-13.3h25.3V2875.9z"/>
	<path class="st2" d="M2786.3,2936.7h-57.2v46.4h-16.3v-46.4h-56.3v-13.2h129.7v13.2H2786.3z M2770.2,2908h-98v-62.5h16.3v18h65.4
		v-18h16.3V2908L2770.2,2908z M2753.9,2876.6h-65.4v18.2h65.4V2876.6z"/>
	<path class="st2" d="M2800,2955.7h25.6v-81.1h-20.9V2863c10.9-2,18.7-4.8,25.3-8.9h13.8v101.5h22.8v15h-66.5v-15L2800,2955.7
		L2800,2955.7z"/>
	<path class="st2" d="M3006.2,2909v13.3H2877V2909h56.4v-14.3H2893v-48.5h97.4v13h-81.2v22.3h82.2v13.2h-41.6v14.3H3006.2
		L3006.2,2909z M2990.4,2956.9c0,16.7-18.5,26.2-49.3,26.2c-30.6,0-49.3-9.5-49.3-26.2c0-16.4,18.7-25.9,49.3-25.9
		C2971.9,2930.9,2990.4,2940.4,2990.4,2956.9z M2974,2956.9c0-8.8-11.9-13.4-32.8-13.4s-32.6,4.8-32.6,13.4
		c0,8.9,11.8,13.4,32.6,13.4S2974,2965.8,2974,2956.9z"/>
</g>
<g>
	<path class="st2" d="M832.1,3096.4v12.8H702.6v-12.8H832.1z M824.9,3042.5H709.1V3030h50v-13.3h16.4v13.3h49.3v12.5H824.9z
		 M816.4,3139.5c0,14.5-17.9,22.3-49.3,22.3c-31.2,0-49.3-7.8-49.3-22.3c0-14.4,18-22.2,49.3-22.2
		C798.5,3117.3,816.4,3125.1,816.4,3139.5z M767.4,3047.3c30.1,0,46.9,7.1,46.9,20.8s-16.8,20.8-46.9,20.8c-30.2,0-47-7.1-47-20.8
		S737.2,3047.3,767.4,3047.3z M799.7,3139.5c0-6.8-11-10.1-32.6-10.1c-21.4,0-32.5,3.4-32.5,10.1c0,7,11,10.3,32.5,10.3
		C788.7,3149.8,799.7,3146.4,799.7,3139.5z M767.4,3058.5c-19.4,0-29.6,3.1-29.6,9.5s10.1,9.5,29.6,9.5c19.3,0,29.6-3.1,29.6-9.5
		C797.1,3061.7,786.8,3058.5,767.4,3058.5z"/>
	<path class="st2" d="M916.3,3102.5c-15.4-5.8-26.6-17.3-32.6-31.7c-6.4,16-18.2,28.7-34.7,35l-8.8-12.7
		c22.3-7.9,34.7-28.1,34.7-49.3v-16.7h16.7v16.9c0,19.3,12,37.8,33.5,45.6L916.3,3102.5z M962.4,3145.6v13.3H866v-45.1h16.4v31.8
		H962.4z M942.8,3064.2h-29v-13.4h29v-32.2h16.3V3125h-16.3V3064.2z"/>
	<path class="st2" d="M1107.9,3087.6v13.3H978.6v-13.3h56.4v-14.3h-40.4v-48.5h97.4v13h-81.2v22.3h82.2v13.2h-41.6v14.3H1107.9
		L1107.9,3087.6z M1092,3135.6c0,16.7-18.5,26.2-49.3,26.2c-30.6,0-49.3-9.5-49.3-26.2c0-16.4,18.7-25.9,49.3-25.9
		C1073.4,3109.7,1092,3119.2,1092,3135.6z M1075.6,3135.6c0-8.8-11.9-13.4-32.8-13.4s-32.6,4.8-32.6,13.4c0,8.9,11.8,13.4,32.6,13.4
		C1063.7,3149.1,1075.6,3144.5,1075.6,3135.6z"/>
</g>
<g>
	<path class="st2" d="M1684.8,3263.8c25.7,0,61.3-0.1,92-4.8l1.1,11.9c-31.6,6-65.8,6.4-91.1,6.4L1684.8,3263.8z M1769.2,3208.7
		c0,20.3-16.7,34.3-39,34.3s-38.8-14-38.8-34.3s16.4-34.3,38.8-34.3S1769.2,3188.4,1769.2,3208.7z M1707.4,3208.7
		c0,12.4,9.7,20.4,22.8,20.4c13.3,0,22.9-8,22.9-20.4c0-12.5-9.7-20.4-22.9-20.4C1717.2,3188.3,1707.4,3196.2,1707.4,3208.7z
		 M1801.9,3164.2v143.4h-16.4v-143.4H1801.9z"/>
	<path class="st2" d="M1899,3244.9c-15.8-5.5-27.2-16.8-33.2-30.6c-6.4,15.7-18.4,28.3-35.3,34.3l-8.4-13c22.2-7.9,35-26.9,35-46.6
		v-2h-30.2v-13.2h76.6v13.2h-30v1.9c0,17.9,12.2,35.6,33.6,43.1L1899,3244.9z M1941.1,3280.4c0,17.2-18.4,27.1-48.1,27.1
		c-29.9,0-48.4-10-48.4-27.1c0-16.9,18.4-27.1,48.4-27.1C1922.7,3253.3,1941.1,3263.5,1941.1,3280.4z M1924.8,3280.4
		c0-9.4-11.8-14.4-31.8-14.4c-20.4,0-32,5-32,14.4s11.5,14.4,32,14.4C1913,3294.8,1924.8,3289.8,1924.8,3280.4z M1924.2,3200.3v-36
		h16.3v85.2h-16.3v-36h-25.3v-13.3h25.3V3200.3z"/>
	<path class="st2" d="M2089.4,3261.1h-57.2v46.4h-16.3v-46.4h-56.3v-13.2h129.8V3261.1z M2073.3,3232.4h-98v-62.5h16.3v18h65.4v-18
		h16.3V3232.4z M2057,3201.1h-65.4v18.2h65.4V3201.1z"/>
	<path class="st2" d="M2096.5,3284.5c34.3-30.4,52.1-53,52.1-72.2c0-12.7-6.8-21.4-19.8-21.4c-9.2,0-16.8,5.9-22.9,13l-10.3-10.1
		c10-10.8,20.3-17.4,35.5-17.4c21.4,0,35.2,13.9,35.2,35c0,22.4-17.9,45.7-42.6,69.4c6-0.6,13.3-1.1,19-1.1h29.2v15.5h-75.2v-10.7
		H2096.5z"/>
	<path class="st2" d="M2309.4,3233.4v13.3h-129.2v-13.3h56.4v-14.3h-40.4v-48.5h97.4v13h-81.2v22.3h82.2v13.2H2253v14.3H2309.4
		L2309.4,3233.4z M2293.5,3281.4c0,16.7-18.5,26.2-49.3,26.2c-30.6,0-49.3-9.5-49.3-26.2c0-16.4,18.7-25.9,49.3-25.9
		C2275,3255.4,2293.5,3265,2293.5,3281.4z M2277.1,3281.4c0-8.8-11.9-13.4-32.8-13.4s-32.6,4.8-32.6,13.4c0,8.9,11.8,13.4,32.6,13.4
		S2277.1,3290.3,2277.1,3281.4z"/>
</g>
<g>
	<path class="st2" d="M1475.8,4242.3v13.4h-129.7v-13.4h56.5v-18.4c-24.6-1.8-39.6-11.5-39.6-27.4c0-17.3,18.4-27.4,47.5-27.4
		c29.3,0,47.6,10.1,47.6,27.4c0,15.8-14.8,25.6-39.2,27.4v18.4H1475.8z M1469.2,4160.8h-117.1v-13.2h50.5V4130h16.3v17.6h50.2
		L1469.2,4160.8L1469.2,4160.8L1469.2,4160.8z M1410.5,4211.3c19.7,0,31.1-5.4,31.1-14.9c0-9.4-11.4-14.8-31.1-14.8
		c-19.4,0-30.8,5.4-30.8,14.8C1379.7,4205.9,1391.1,4211.3,1410.5,4211.3z"/>
	<path class="st2" d="M1523.2,4205.7c-13.7,0.6-26.6,0.8-37.8,0.8l-2-13.3c26.3-0.1,61.4-0.5,91.7-4.3l1.3,11.8
		c-12,2-24.6,3.5-36.7,4.1v27.6h-16.3v-26.6h-0.2V4205.7z M1494.1,4158.8c0-15.2,14.4-25.2,35.5-25.2c20.9,0,35.3,10,35.3,25.2
		s-14.4,25.2-35.3,25.2S1494.1,4174,1494.1,4158.8z M1605.9,4255.2v13.3h-103.3v-42.2h16.3v29L1605.9,4255.2L1605.9,4255.2z
		 M1509.8,4158.8c0,8,8,13.2,19.9,13.2c11.8,0,19.8-5,19.8-13.2c0-8-8-13.2-19.8-13.2C1517.8,4145.6,1509.8,4150.7,1509.8,4158.8z
		 M1586.2,4212.2V4128h16.3v108.8h-16.3v-13.3h-28.1v-11.4h28.1V4212.2z"/>
	<path class="st2" d="M1620.8,4248.4c34.3-30.4,52.1-53,52.1-72.2c0-12.7-6.8-21.4-19.8-21.4c-9.2,0-16.8,5.9-22.9,13l-10.3-10.1
		c10-10.8,20.3-17.4,35.5-17.4c21.4,0,35.2,13.9,35.2,35c0,22.4-17.9,45.7-42.6,69.4c6-0.6,13.3-1.1,19-1.1h29.2v15.5H1621
		L1620.8,4248.4L1620.8,4248.4z"/>
	<path class="st2" d="M1833.6,4197.3v13.3h-129.2v-13.3h56.4V4183h-40.4v-48.5h97.4v13h-81.2v22.3h82.2v13.2h-41.6v14.3H1833.6z
		 M1817.8,4245.3c0,16.7-18.5,26.2-49.3,26.2c-30.6,0-49.3-9.5-49.3-26.2c0-16.4,18.7-25.9,49.3-25.9
		C1799.3,4219.2,1817.8,4228.7,1817.8,4245.3z M1801.3,4245.3c0-8.8-11.9-13.4-32.8-13.4s-32.6,4.8-32.6,13.4
		c0,8.9,11.8,13.4,32.6,13.4C1789.5,4258.7,1801.3,4254.2,1801.3,4245.3z"/>
</g>
<g>
	<path class="st2" d="M1929.3,5299v13.4h-129.7V5299h56.5v-18.4c-24.6-1.8-39.6-11.5-39.6-27.4c0-17.3,18.4-27.4,47.5-27.4
		c29.3,0,47.6,10.1,47.6,27.4c0,15.8-14.8,25.6-39.2,27.4v18.4H1929.3z M1922.6,5217.6h-117.1v-13.2h50.5v-17.6h16.3v17.6h50.2
		L1922.6,5217.6L1922.6,5217.6z M1864,5268.2c19.7,0,31.1-5.4,31.1-14.9c0-9.4-11.4-14.8-31.1-14.8c-19.4,0-30.8,5.4-30.8,14.8
		C1833.2,5262.8,1844.6,5268.2,1864,5268.2z"/>
	<path class="st2" d="M1976.6,5262.4c-13.7,0.6-26.6,0.8-37.8,0.8l-2-13.3c26.3-0.1,61.4-0.5,91.7-4.3l1.3,11.8
		c-12,2-24.6,3.5-36.7,4.1v27.6h-16.3v-26.6h-0.2V5262.4z M1947.6,5215.6c0-15.2,14.4-25.2,35.5-25.2c20.9,0,35.3,10,35.3,25.2
		s-14.4,25.2-35.3,25.2C1962,5240.7,1947.6,5230.7,1947.6,5215.6z M2059.4,5312v13.3H1956V5283h16.3v29H2059.4L2059.4,5312
		L2059.4,5312z M1963.1,5215.6c0,8,8,13.2,19.9,13.2c11.8,0,19.8-5,19.8-13.2s-8-13.2-19.8-13.2
		C1971.3,5202.4,1963.1,5207.4,1963.1,5215.6z M2039.7,5268.9v-84.1h16.3v108.8h-16.3v-13.3h-28.1v-11.4H2039.7z"/>
	<path class="st2" d="M2080.9,5300.8h25.6v-81.1h-20.9v-11.5c10.9-2,18.7-4.8,25.3-8.9h13.8v101.5h22.8v15H2081v-15H2080.9z"/>
	<path class="st2" d="M2287.1,5254v13.3h-129.2V5254h56.4v-14.3h-40.4v-48.5h97.4v13h-81.2v22.3h82.2v13.2h-41.6v14.3H2287.1z
		 M2271.3,5302c0,16.7-18.5,26.2-49.3,26.2c-30.6,0-49.3-9.5-49.3-26.2c0-16.4,18.7-25.9,49.3-25.9
		C2252.7,5276.1,2271.3,5285.6,2271.3,5302z M2254.7,5302c0-8.8-11.9-13.4-32.8-13.4s-32.6,4.8-32.6,13.4c0,8.9,11.8,13.4,32.6,13.4
		S2254.7,5310.9,2254.7,5302z"/>
</g>
<g>
	<path class="st2" d="M3292.4,3478.8c-16.3-6-28.1-17.8-34.2-32.6c-6.5,16-18.4,29-35.2,35.3l-8.4-13.2c22.4-8.3,35-28.7,35-49.6
		v-14.3h16.7v14.3c0,20.3,12.5,39.5,34.6,47L3292.4,3478.8z M3336.1,3523.6v13.3h-97.6v-45.5h16.4v32.2H3336.1L3336.1,3523.6z
		 M3332,3501.2h-16.3v-104.5h16.3V3501.2z"/>
	<path class="st2" d="M3481.2,3463.4v13.3H3352v-13.3h50.6v-27.8h16.4v27.8H3481.2z M3365.7,3491.1h98.9v48.6h-16.3v-35.6h-82.6
		L3365.7,3491.1L3365.7,3491.1z M3445.4,3453.1c3.1-14.9,3.5-25.9,3.5-36H3367v-13.2h98.2v10.6c0,10.8,0,23.4-3.6,40L3445.4,3453.1z
		"/>
	<path class="st2" d="M3495.3,3512.4h25.6v-81.1H3500v-11.5c10.9-2,18.7-4.8,25.3-8.9h13.8v101.5h22.8v15h-66.5v-15H3495.3z"/>
	<path class="st2" d="M3701.5,3465.6v13.3h-129.2v-13.3h56.4v-14.3h-40.4v-48.5h97.4v13h-81.2v22.3h82.2v13.2H3645v14.3H3701.5
		L3701.5,3465.6z M3685.6,3513.6c0,16.7-18.5,26.2-49.3,26.2c-30.6,0-49.3-9.5-49.3-26.2c0-16.4,18.7-25.9,49.3-25.9
		C3667.2,3487.6,3685.6,3497.1,3685.6,3513.6z M3669.2,3513.6c0-8.8-11.9-13.4-32.8-13.4c-20.9,0-32.6,4.8-32.6,13.4
		c0,8.9,11.8,13.4,32.6,13.4C3657.3,3527.1,3669.2,3522.4,3669.2,3513.6z"/>
</g>
<g>
	<path class="st2" d="M3352.3,5049.3c-16-5-27.4-15.4-33.6-28.7c-6.4,15.2-18.4,27.4-35.5,33.2l-8.3-12.8c22.4-7.8,35-26.2,35-45.6
		v-2.9h-30.4v-13.2h76.8v13.2h-29.9v2.6c0,17.8,11.9,34.3,33.7,41.4L3352.3,5049.3z M3389.6,5085.3c0,16.9-18.2,27.1-47.6,27.1
		c-29.4,0-47.6-10.1-47.6-27.1c0-17.2,18.2-27.1,47.6-27.1C3371.4,5058.2,3389.6,5068.1,3389.6,5085.3z M3373.4,5085.3
		c0-9.4-11.5-14.3-31.6-14.3c-20,0-31.6,4.9-31.6,14.3c0,9.2,11.5,14.3,31.6,14.3C3361.9,5099.6,3373.4,5094.5,3373.4,5085.3z
		 M3408.2,5004.2v13.4H3388v37.2h-16.3v-85.6h16.3v34.8h20.3v0.2H3408.2z"/>
	<path class="st2" d="M3453.8,5045.8c-21.7,0-38-14-38-34.3c0-19.9,16.3-33.8,38-33.8c21.8,0,38.2,13.9,38.2,33.8
		C3492.1,5031.8,3475.8,5045.8,3453.8,5045.8z M3453.8,5032c12.8,0,22.2-7.9,22.2-20.6c0-12.2-9.4-20.3-22.2-20.3s-22,8-22,20.3
		C3431.9,5024.1,3441.1,5032,3453.8,5032z M3434.4,5058.1h91.4v52.6h-91.4V5058.1z M3450.6,5097.7h59.3V5071h-59.3V5097.7z
		 M3546.1,5016.2h-20.3v35.2h-16.3v-82.1h16.3v33.5h20.3V5016.2z"/>
	<path class="st2" d="M3681.4,5038.4v13.3h-129.2v-13.3h56.4v-14.3h-40.4v-48.5h97.4v13h-81.2v22.3h82.2v13.2H3625v14.3H3681.4z
		 M3665.5,5086.4c0,16.7-18.5,26.2-49.3,26.2c-30.6,0-49.3-9.5-49.3-26.2c0-16.4,18.7-25.9,49.3-25.9
		C3647,5060.5,3665.5,5069.9,3665.5,5086.4z M3649.1,5086.4c0-8.8-11.9-13.4-32.8-13.4s-32.6,4.8-32.6,13.4
		c0,8.9,11.8,13.4,32.6,13.4S3649.1,5095.3,3649.1,5086.4z"/>
</g>
</svg>
