<?xml version="1.0" encoding="utf-8"?>
<!-- Generator: Adobe Illustrator 25.4.1, SVG Export Plug-In . SVG Version: 6.00 Build 0)  -->
<svg version="1.1" id="레이어_1" xmlns="http://www.w3.org/2000/svg" xmlns:xlink="http://www.w3.org/1999/xlink" x="0px"
	 y="0px" viewBox="0 0 22 30" style="enable-background:new 0 0 22 30;" xml:space="preserve">
<style type="text/css">
	.st0{fill:#FFFFFF;}
	.st1{fill:#BCD55F;}
	.st2{fill:#ED171F;}
</style>
<circle class="st0" cx="10.9" cy="11" r="9.5"/>
<path class="st1" d="M12.1,0.3c-1-0.1-1.8-0.1-2.5,0C1.9,1.6,0.2,8,0.2,10.7c0,0.1,0,0.2,0,0.3c0.1,2.7,1.5,5.1,1.5,5.1l9.2,13.5
	c0,0,0.1,0.2,0.2,0l0.1-0.1c0.1-0.2,0.3-0.4,0.5-0.7l0.2-0.3c0-0.1,0.1-0.1,0.1-0.1l8.4-12.4c0,0,1.4-2.4,1.5-5.1c0-0.1,0-0.2,0-0.3
	C21.7,8,19.9,1.6,12.1,0.3z M10.9,20.1c-5,0-9.1-4.1-9.1-9.1c0-5,4.1-9.1,9.1-9.1S20,5.9,20,11C20,16,15.9,20.1,10.9,20.1z"/>
<g>
	<path class="st2" d="M3.9,13.9l6-10.5c0.4-0.8,1.6-0.8,2,0l6,10.5c0.1,0.2,0.2,0.4,0.2,0.6c0,0.6-0.5,1.2-1.2,1.2H4.9
		c-0.6,0-1.2-0.5-1.2-1.2C3.7,14.3,3.8,14.1,3.9,13.9L3.9,13.9z"/>
	<polygon class="st0" points="4.6,14.6 17.2,14.6 10.9,3.9 	"/>
	<path d="M10.1,8.8L9.4,9.4l0,0c0,0-0.1,0.1-0.1,0.1c0,0.1,0.1,0.2,0.2,0.2c0,0,0.1,0,0.1,0l0.2-0.1l0.1,0l0.6-0.4l0.1-0.2l0.1,0.8
		l-1.7,2.7l-0.3-0.1l-0.2,0.1L9.1,13l1.8-2.4l0.6,1.1l1,0.9l0,0.1l-0.2,0l-0.1,0.2h0.5l0.4-0.6l-0.7-0.7l-0.3-0.4l-0.5-1.1
		c0-0.1,0-0.2,0-0.2c0-0.1,0-0.3-0.1-0.4c0,0,0-0.1,0-0.1l0-0.8L11.8,9l0.1,0.9c0,0.1,0.1,0.1,0.2,0.1c0.1,0,0.2-0.1,0.2-0.2v0
		l0-0.2l0,0l-0.1-0.9L11.8,8c0,0-0.1-0.1-0.1-0.1c0,0-0.1-0.1-0.2-0.1c-0.1,0-0.2-0.1-0.3-0.1c-0.1,0-0.1-0.1-0.1-0.1
		c0-0.1,0-0.1,0-0.2c0-0.1,0-0.2,0.1-0.2c0-0.1,0-0.1,0-0.2c0,0,0-0.1,0-0.1c0-0.1-0.1-0.2-0.2-0.3c-0.1,0-0.1,0-0.2,0
		c-0.1,0-0.2,0-0.3,0.1c-0.1,0.1-0.1,0.2-0.1,0.3c0,0,0,0.1,0,0.1c0,0,0,0,0,0.1c0,0,0,0,0,0c0,0,0,0.1,0,0.1c0,0.1,0,0.2,0.1,0.3
		c0,0,0.1,0,0.1,0h0c0,0,0.1,0,0.1,0.1v0c0,0,0,0,0,0.1c-0.1,0.1-0.2,0.1-0.2,0.2c-0.1,0-0.1,0.1-0.1,0.1c0,0,0,0.1-0.1,0.2
		L10.1,8.8L10.1,8.8z"/>
	<polygon points="6.5,13.6 7.6,13.6 8.1,12.5 7.1,12.5 	"/>
	<polygon points="9.1,13.6 10.2,13.6 10.3,12.5 9.6,12.5 9.2,13 	"/>
	<polygon points="12.7,13.6 11.6,13.6 11.5,12.5 12.3,12.5 12.4,12.6 12.3,12.7 12.1,13 12.6,13 	"/>
	<polygon points="15.3,13.6 14.1,13.6 13.6,12.5 14.6,12.5 	"/>
</g>
</svg>
