<?xml version="1.0" encoding="utf-8"?>
<!-- Generator: Adobe Illustrator 25.4.1, SVG Export Plug-In . SVG Version: 6.00 Build 0)  -->
<svg version="1.1" id="레이어_1" xmlns="http://www.w3.org/2000/svg" xmlns:xlink="http://www.w3.org/1999/xlink" x="0px"
	 y="0px" viewBox="0 0 22 30" style="enable-background:new 0 0 22 30;" xml:space="preserve">
<style type="text/css">
	.st0{fill:#FFFFFF;}
	.st1{fill:#EF5264;}
	.st2{fill:#6FB4D4;}
	.st3{fill:#00AEFF;}
</style>
<circle class="st0" cx="10.9" cy="11" r="9.5"/>
<rect x="5.9" y="20.1" class="st1" width="10.1" height="1.8"/>
<path class="st2" d="M12.1,0.3c-1-0.1-1.8-0.1-2.5,0C1.9,1.6,0.2,8,0.2,10.7c0,0.1,0,0.2,0,0.3c0.1,2.7,1.5,5.1,1.5,5.1l9.2,13.5
	c0,0,0.1,0.2,0.2,0l0.1-0.1c0.1-0.2,0.3-0.4,0.5-0.7l0.2-0.3c0-0.1,0.1-0.1,0.1-0.1l8.4-12.4c0,0,1.4-2.4,1.5-5.1c0-0.1,0-0.2,0-0.3
	C21.7,8,19.9,1.6,12.1,0.3z M10.9,20.1c-5,0-9.1-4.1-9.1-9.1c0-5,4.1-9.1,9.1-9.1S20,5.9,20,11C20,16,15.9,20.1,10.9,20.1z"/>
<g>
	<circle class="st3" cx="10.8" cy="16" r="1.4"/>
	<path class="st3" d="M17.5,10.1c-0.2,0-0.4-0.1-0.5-0.2c-3.4-3.4-8.9-3.4-12.3,0c0,0,0,0,0,0c-0.3,0.3-0.7,0.3-1,0
		c-0.3-0.3-0.3-0.7,0-1c4-4,10.4-4,14.3,0c0,0,0,0,0,0c0.3,0.3,0.3,0.7,0,1C17.8,10,17.6,10.1,17.5,10.1L17.5,10.1z"/>
	<path class="st3" d="M13.4,14.2c-0.2,0-0.4-0.1-0.5-0.2c-1.1-1.1-2.9-1.1-4.1,0c-0.3,0.3-0.8,0.2-1-0.1c-0.2-0.3-0.2-0.7,0-0.9
		c1.7-1.7,4.4-1.7,6.1,0c0.3,0.3,0.3,0.7,0,1C13.8,14.1,13.6,14.2,13.4,14.2z"/>
	<path class="st3" d="M15.4,12.1c-0.2,0-0.4-0.1-0.5-0.2c-2.3-2.3-5.9-2.3-8.2,0c0,0,0,0,0,0c-0.3,0.3-0.8,0.2-1-0.1
		c-0.2-0.3-0.2-0.7,0-0.9c2.8-2.8,7.4-2.8,10.2,0c0.3,0.3,0.3,0.7,0,1C15.8,12,15.6,12.1,15.4,12.1z"/>
</g>
</svg>
